<svg width="40" height="40" viewBox="0 0 40 40" fill="none" xmlns="http://www.w3.org/2000/svg">
<g clip-path="url(#clip0_322_2396)">
<path fill-rule="evenodd" clip-rule="evenodd" d="M0.782298 0.782176C1.48324 0.0812344 2.61969 0.0812344 3.32063 0.782176L20.0002 17.4617L36.6797 0.782176C37.3807 0.0812344 38.5171 0.0812344 39.2181 0.782176C39.919 1.48312 39.919 2.61957 39.2181 3.32051L22.5385 20.0001L39.2181 36.6796C39.919 37.3806 39.919 38.517 39.2181 39.2179C38.5171 39.9189 37.3807 39.9189 36.6797 39.2179L20.0002 22.5384L3.32063 39.2179C2.61969 39.9189 1.48324 39.9189 0.782298 39.2179C0.0813565 38.517 0.0813565 37.3806 0.782298 36.6796L17.4618 20.0001L0.782298 3.32051C0.0813565 2.61957 0.0813565 1.48312 0.782298 0.782176Z" fill="black"/>
</g>
<defs>
<clipPath id="clip0_322_2396">
<rect width="40" height="40" fill="white"/>
</clipPath>
</defs>
</svg>
