<svg width="170" height="135" viewBox="0 0 170 135" fill="none" xmlns="http://www.w3.org/2000/svg">
<path fill-rule="evenodd" clip-rule="evenodd" d="M110.977 38.1748H79.5938C77.4993 38.1748 75.8013 39.8238 75.8013 41.858V73.6557C75.8013 75.6899 77.4993 77.3389 79.5938 77.3389H110.977V38.1748ZM114.734 77.3389H146.116C148.211 77.3389 149.909 75.6899 149.909 73.6557V41.858C149.909 39.8238 148.211 38.1748 146.116 38.1748H114.734V77.3389ZM106.771 57.7569C106.771 58.9374 105.753 59.8945 104.496 59.8945C103.24 59.8945 102.221 58.9374 102.221 57.7569C102.221 56.5763 103.24 55.6193 104.496 55.6193C105.753 55.6193 106.771 56.5763 106.771 57.7569ZM121.75 59.8945C123.006 59.8945 124.025 58.9374 124.025 57.7569C124.025 56.5763 123.006 55.6193 121.75 55.6193C120.493 55.6193 119.475 56.5763 119.475 57.7569C119.475 58.9374 120.493 59.8945 121.75 59.8945Z" fill="black"/>
<path d="M20.0909 82.0825C20.0909 81.356 20.6974 80.7671 21.4454 80.7671H132.939C133.687 80.7671 134.294 81.356 134.294 82.0825V87.8164C134.294 88.5429 133.687 89.1318 132.939 89.1318H21.4454C20.6974 89.1318 20.0909 88.5429 20.0909 87.8164V82.0825Z" fill="black"/>
<path fill-rule="evenodd" clip-rule="evenodd" d="M72.5916 11.5739C72.5916 17.9659 67.0767 23.1477 60.2738 23.1477C53.4709 23.1477 47.9561 17.9659 47.9561 11.5739C47.9561 5.18179 53.4709 0 60.2738 0C67.0767 0 72.5916 5.18179 72.5916 11.5739ZM44.076 22.6629C45.7601 22.0696 49.5821 22.0656 49.5821 22.0656C49.5821 22.0656 53.2343 26.4885 60.2847 26.4885C67.3351 26.4885 70.9873 22.0656 70.9873 22.0656L81.7152 22.3491C81.7152 22.3491 87.3105 22.0313 91.215 26.1622C95.4568 30.65 95.1418 35.2976 95.1418 35.2976H83.3158C83.3158 35.2976 83.4087 34.5309 82.6639 33.9163C82.0859 33.4392 80.9461 33.4417 80.9461 33.4417V35.3682H78.9043C75.3136 35.3682 72.4028 38.1951 72.4028 41.6823V43.272C71.6344 41.8419 70.0933 40.8656 68.3173 40.8656H66.9912C66.6393 39.8093 65.6181 39.0454 64.4133 39.0454H49.5821V33.4417C49.5821 33.4417 48.7392 33.4204 48.2419 33.5833C47.7931 33.7302 47.196 34.1677 47.196 34.1677L34.8718 43.3992L44.076 53.5508C46.4054 56.0762 46.1148 59.8978 43.4271 62.0865C40.7393 64.2752 36.6721 64.0022 34.3428 61.4768L22.9572 48.4919C22.9572 48.4919 20.14 45.4997 20.14 42.6451C20.1401 39.7905 23.266 37.6294 23.266 37.6294L40.6831 24.4802C40.6831 24.4802 41.8424 23.4499 44.076 22.6629ZM58.3472 61.4281C58.3472 59.391 56.9448 57.6719 55.0264 57.1319V54.4163H64.4133C65.5971 54.4163 66.6035 53.6789 66.9721 52.6512H68.3173C70.0933 52.6512 71.6344 51.675 72.4028 50.2449V74.1554C72.4028 75.3164 72.7254 76.4042 73.2883 77.3388H66.8313V75.1176H63.6409V77.3388H49.5821V67.9438H53.742C56.2854 67.9438 58.3472 65.9414 58.3472 63.4713V61.4281ZM49.5821 92.5599V128.807C49.5821 128.807 49.5821 135 56.6115 135C63.6409 135 63.6409 128.807 63.6409 128.807V92.5599H49.5821ZM66.8313 92.5599V128.807C66.8313 128.807 66.8313 135 73.8887 135C81.1883 135 80.9461 128.807 80.9461 128.807V92.5599H66.8313Z" fill="black"/>
<path fill-rule="evenodd" clip-rule="evenodd" d="M43.0204 46.5506C43.0204 44.0805 45.0822 42.0781 47.6256 42.0781H63.386V51.3171H47.6256C45.0822 51.3171 43.0204 49.3147 43.0204 46.8446V46.5506ZM51.6702 54.5826H48.2029C48.2394 54.6661 48.2766 54.7494 48.314 54.8331L48.314 54.8331C48.807 55.9364 49.3371 57.1227 48.8558 60.2098C48.5936 61.8917 46.3942 64.1095 45.5236 64.7794H54.3494C54.3494 64.7794 54.6922 64.7976 54.8929 64.5557C55.0798 64.3306 55.0474 64.0601 55.0474 64.0601V60.908C55.0474 60.908 55.0474 60.4581 54.8476 60.2656C54.6109 60.0374 54.1693 60.0618 54.1693 60.0618H51.6702V54.5826ZM68.6246 43.8576H66.4845V49.5376H68.7515C69.5165 49.5376 70.1367 48.9353 70.1367 48.1923H75.8123V45.3262H70.1367C70.1367 44.5151 69.4597 43.8576 68.6246 43.8576Z" fill="#6999DC"/>
</svg>
