<svg width="171" height="136" viewBox="0 0 171 136" fill="none" xmlns="http://www.w3.org/2000/svg">
<path d="M76.2522 69.7363H83.3444V72.511H76.2522V69.7363Z" fill="black"/>
<path d="M87.8525 69.7363H94.9448V72.511H87.8525V69.7363Z" fill="black"/>
<path d="M149.964 69.7363H157.056V72.511H149.964V69.7363Z" fill="black"/>
<path d="M154.897 69.7588L158.2 67.4699L159.781 69.7504L156.478 72.0394L154.897 69.7588Z" fill="black"/>
<path d="M150.743 72.1606L147.524 69.7547L149.185 67.5323L152.404 69.9382L150.743 72.1606Z" fill="black"/>
<path d="M152.123 70.3457L152.123 57.4067L154.897 57.4067L154.897 70.3457L152.123 70.3457Z" fill="black"/>
<path d="M76.2522 77.6982L76.2522 96.2492L73.4776 96.2492L73.4776 77.6982L76.2522 77.6982Z" fill="black"/>
<path d="M133.629 77.6982L133.629 96.2492L130.854 96.2492L130.854 77.6982L133.629 77.6982Z" fill="black"/>
<path d="M132.386 121.54L131.451 136.005L128.537 136.005L127.603 121.54L132.386 121.54Z" fill="black"/>
<path d="M70.7034 74.9204H135.634V77.6981H70.7034V74.9204Z" fill="black"/>
<path d="M70.7034 96.249H135.634V99.0267H70.7034V96.249Z" fill="black"/>
<path d="M70.7034 117.305H135.634V120.083H70.7034V117.305Z" fill="black"/>
<path fill-rule="evenodd" clip-rule="evenodd" d="M133.629 100.483H72.6572V115.849H133.629V100.483ZM103.122 108.156C104.322 108.156 105.296 107.182 105.296 105.981C105.296 104.78 104.322 103.807 103.122 103.807C101.921 103.807 100.947 104.78 100.947 105.981C100.947 107.182 101.921 108.156 103.122 108.156Z" fill="#6999DC"/>
<path fill-rule="evenodd" clip-rule="evenodd" d="M115.012 122.736H54.0408V136.005H115.012V122.736ZM84.5265 130.604C85.7274 130.604 86.7008 129.63 86.7008 128.429C86.7008 127.229 85.7274 126.255 84.5265 126.255C83.3257 126.255 82.3522 127.229 82.3522 128.429C82.3522 129.63 83.3257 130.604 84.5265 130.604Z" fill="#6999DC"/>
<path fill-rule="evenodd" clip-rule="evenodd" d="M29.2122 63.6363C29.0757 63.8354 28.9805 64.0561 28.9308 64.2992C28.4579 66.6088 32.3384 69.3541 37.5982 70.431C38.6374 70.6437 39.6527 70.7754 40.6166 70.832C39.6521 75.4084 35.5911 78.8437 30.7278 78.8437C25.1463 78.8437 20.6216 74.319 20.6216 68.7375C20.6216 63.156 25.1463 58.6313 30.7278 58.6313C33.6467 58.6313 36.2766 59.8688 38.1214 61.8477C38.4463 61.8766 38.7751 61.9116 39.1071 61.953C44.4348 62.6171 48.5648 64.6707 48.3318 66.5397C48.0988 68.4087 43.591 69.3854 38.2634 68.7213C32.9358 68.0571 28.8057 66.0036 29.0387 64.1346C29.0604 63.9605 29.1192 63.7943 29.2122 63.6363Z" fill="black"/>
<path fill-rule="evenodd" clip-rule="evenodd" d="M51.9771 85.8922C53.0627 87.6232 52.5394 89.9064 50.8084 90.9919L34.5308 101.2L21.2753 90.7645C19.6699 89.5007 19.393 87.1747 20.6568 85.5693C21.9207 83.9639 24.2467 83.687 25.8521 84.9508L35.0138 92.1633L46.8774 84.7235C48.6084 83.638 50.8916 84.1612 51.9771 85.8922Z" fill="black"/>
<path fill-rule="evenodd" clip-rule="evenodd" d="M11.2214 97.6651C11.6052 94.5527 13.4148 86.3391 14.9732 84.3202C16.8491 81.89 20.6439 78.266 24.609 79.5451C24.7816 79.6007 24.9512 79.6543 25.1176 79.7069C27.8674 80.5755 29.7344 81.1653 29.6232 86.3502L26.6146 83.9818C24.4741 82.2966 21.3728 82.6658 19.6877 84.8064C18.0025 86.9469 18.3717 90.0482 20.5123 91.7333L28.0764 97.6881C27.0744 104.152 26.976 106.995 27.0818 107.642L41.7484 103.89C44.0649 103.194 48.9282 102.892 49.8491 107.258C50.796 111.747 51.8295 121.256 52.2376 125.011C52.3256 125.821 52.3846 126.363 52.4073 126.529C52.5096 127.28 52.4499 133.152 52.4073 135.994H42.0469L39.6166 115.828L28.1477 118.855C24.1968 119.736 15.7323 120.646 13.4811 117.235C9.90042 111.81 10.5339 105.135 11.0104 100.114C11.0931 99.2426 11.171 98.4214 11.2214 97.6651Z" fill="black"/>
<path fill-rule="evenodd" clip-rule="evenodd" d="M45.2654 79.2041C43.9586 79.2041 42.8992 80.2635 42.8992 81.5704C42.8992 82.8772 43.9586 83.9366 45.2654 83.9366H45.8108L46.2219 83.6788C48.4498 82.2817 51.3637 82.8832 52.8651 85.0025H53.8993V83.9366H54.965V83.2971H55.8604V82.8708H59.3139V82.1033H68.8644V81.0374H59.3139V80.27H55.8604V79.8436H54.965V79.2041H45.2654ZM54.2831 94.6382H47.3149L51.4633 92.0366C51.934 91.7414 52.3378 91.3798 52.67 90.9715H54.2831V94.6382ZM44.7616 80.5863H49.7653V81.0646H44.7616V80.5863ZM44.7616 81.9108H49.7653V82.3891H44.7616V81.9108Z" fill="black"/>
<path d="M22.4372 121.21C20.8186 121.264 17.8463 120.84 16.2721 120.555L19.2024 127.549C14.3509 127.626 4.53154 127.828 4.0658 128.014C3.48362 128.247 1.91183 128.538 0.630968 130.867C-0.393718 132.73 0.204015 134.981 0.630968 135.874H32.2431C33.5472 134.523 32.7865 131.663 32.2431 130.401L28.1599 120.406C26.8146 120.803 23.6429 121.17 22.4372 121.21Z" fill="black"/>
<rect x="137.52" y="75.9492" width="31.9797" height="58.5559" stroke="black" stroke-width="3"/>
<rect x="137.52" y="1.5" width="31.9797" height="35.031" stroke="black" stroke-width="3"/>
<rect x="72.2034" y="1.5" width="59.9253" height="35.031" stroke="black" stroke-width="3"/>
</svg>
