<svg width="170" height="135" viewBox="0 0 170 135" fill="none" xmlns="http://www.w3.org/2000/svg">
<path fill-rule="evenodd" clip-rule="evenodd" d="M71.3428 0H70.4311L69.7642 0.592674L46.9993 20.8243C46.9993 20.8243 45.2968 22.1759 45.8769 23.5423C46.4534 24.9003 48.5779 24.6458 48.5779 24.6458H56.2948V56.6485H60.9249V24.6458H134.236V73.9374H138.866V24.6458H146.197C146.197 24.6458 147.901 24.7317 148.512 23.5423C149.165 22.2701 147.733 20.7876 147.733 20.7876L123.811 0.556021L123.153 0H122.274H71.3428ZM54.4565 20.2316L72.2545 4.41417H121.396L140.098 20.2316H54.4565ZM68.256 29.7957H65.9409V32.0028V42.4864V52.9701V55.1771H68.256H79.0597H89.8633H92.1784V52.9701V42.4864V32.0028V29.7957H89.8633H79.0597H68.256ZM70.5711 40.2793V34.2098H76.7446V40.2793H70.5711ZM81.3747 40.2793V34.2098H87.5483V40.2793H81.3747ZM87.5483 50.763V44.6935H81.3747V50.763H87.5483ZM76.7446 50.763V44.6935H70.5711V50.763H76.7446ZM105.683 29.7957H103.368V32.0028V42.4864V52.9701V55.1771H105.683H116.487H127.29H129.605V52.9701V42.4864V32.0028V29.7957H127.29H116.487H105.683ZM107.998 40.2793V34.2098H114.172V40.2793H107.998ZM118.802 40.2793V34.2098H124.975V40.2793H118.802ZM124.975 50.763V44.6935H118.802V50.763H124.975ZM114.172 50.763V44.6935H107.998V50.763H114.172Z" fill="black"/>
<path d="M100.281 116.24V63.6377H18.8678C17.1958 63.6377 13.8518 64.3734 13.8518 68.7876C13.8518 73.2017 17.3244 74.3053 18.8678 74.3053H30.829C31.858 74.5505 33.9158 75.7767 33.9158 78.7194C33.9158 81.6622 31.858 82.3979 30.829 82.3979H26.9706C26.9706 82.3979 23.1121 82.3979 23.1121 86.4442C23.1121 90.4905 25.813 91.2262 26.9706 91.2262H55.909C57.581 91.2262 60.925 92.2562 60.925 96.3761C60.925 100.496 57.581 101.771 55.909 101.894H20.7971C19.6395 101.894 13.8518 102.262 13.8518 109.251C13.8518 114.842 18.482 116.24 20.7971 116.24H28.9629C28.9629 116.24 31.4815 107.447 41.5555 107.447C51.6296 107.447 54.7778 116.24 54.7778 116.24H100.281Z" fill="#6999DC"/>
<path fill-rule="evenodd" clip-rule="evenodd" d="M107.998 73.5694H64.0119V69.1553H107.998V73.5694ZM97.1946 76.1444H101.825V77.9836H137.896L152.37 91.7833V118.079H137.708V113.665H147.74V93.6117L135.978 82.3978H101.825V100.79H97.1946V76.1444ZM92.5645 84.237H57.4525V79.8228H92.5645V84.237ZM121.503 84.237H126.133V96.376H146.197V100.79H121.503V84.237ZM88.3202 98.9509H66.327V94.5367H88.3202V98.9509ZM107.998 107.779H75.2014V103.365H107.998V107.779ZM97.1946 109.618H101.825V113.665H110.699V118.079H97.1946V109.618Z" fill="black"/>
<path fill-rule="evenodd" clip-rule="evenodd" d="M41.6329 131.322C48.0258 131.322 53.2082 126.381 53.2082 120.286C53.2082 114.191 48.0258 109.251 41.6329 109.251C35.24 109.251 30.0575 114.191 30.0575 120.286C30.0575 126.381 35.24 131.322 41.6329 131.322ZM41.6329 135C50.1567 135 57.0667 128.412 57.0667 120.286C57.0667 112.16 50.1567 105.572 41.6329 105.572C33.109 105.572 26.199 112.16 26.199 120.286C26.199 128.412 33.109 135 41.6329 135Z" fill="black"/>
<path fill-rule="evenodd" clip-rule="evenodd" d="M124.204 131.322C130.597 131.322 135.779 126.381 135.779 120.286C135.779 114.191 130.597 109.251 124.204 109.251C117.811 109.251 112.628 114.191 112.628 120.286C112.628 126.381 117.811 131.322 124.204 131.322ZM124.204 135C132.728 135 139.638 128.412 139.638 120.286C139.638 112.16 132.728 105.572 124.204 105.572C115.68 105.572 108.77 112.16 108.77 120.286C108.77 128.412 115.68 135 124.204 135Z" fill="black"/>
<path fill-rule="evenodd" clip-rule="evenodd" d="M41.6329 123.229C43.3376 123.229 44.7196 121.912 44.7196 120.286C44.7196 118.661 43.3376 117.344 41.6329 117.344C39.9281 117.344 38.5461 118.661 38.5461 120.286C38.5461 121.912 39.9281 123.229 41.6329 123.229ZM41.6329 126.908C45.4686 126.908 48.5781 123.943 48.5781 120.286C48.5781 116.629 45.4686 113.665 41.6329 113.665C37.7971 113.665 34.6877 116.629 34.6877 120.286C34.6877 123.943 37.7971 126.908 41.6329 126.908Z" fill="black"/>
<path fill-rule="evenodd" clip-rule="evenodd" d="M124.204 123.229C125.909 123.229 127.291 121.912 127.291 120.286C127.291 118.661 125.909 117.344 124.204 117.344C122.499 117.344 121.117 118.661 121.117 120.286C121.117 121.912 122.499 123.229 124.204 123.229ZM124.204 126.908C128.04 126.908 131.149 123.943 131.149 120.286C131.149 116.629 128.04 113.665 124.204 113.665C120.368 113.665 117.259 116.629 117.259 120.286C117.259 123.943 120.368 126.908 124.204 126.908Z" fill="black"/>
</svg>
