<svg width="171" height="135" viewBox="0 0 171 135" fill="none" xmlns="http://www.w3.org/2000/svg">
<path d="M12.8218 59.2659C12.8218 55.6762 16.0127 52.7661 19.9489 52.7661H38.9085C42.8447 52.7661 46.0356 55.6762 46.0356 59.2659V65.7656H12.8218V59.2659Z" fill="#6999DC"/>
<path fill-rule="evenodd" clip-rule="evenodd" d="M69.4251 92.1336C67.4022 93.7893 66.132 95.5428 65.6961 97.3826C63.5067 106.624 54.4613 111.36 50.6057 112.948V108.135C53.7456 106.842 59.1034 103.67 60.8205 96.422C61.5479 93.3513 63.5769 90.8078 66.0934 88.7481C66.8911 88.0952 67.7501 87.4805 68.6533 86.9024L72.7316 89.8921C71.5106 90.5917 70.3954 91.3395 69.4251 92.1336ZM73.6577 89.3812C74.7216 88.8158 75.8528 88.2844 77.0284 87.7883C80.1952 86.4521 84.3841 85.2868 88.1553 84.4205L83.0416 80.7146L83.3072 80.4098C81.1938 81.0182 78.9539 81.9634 75.0521 83.6099L75.052 83.6099L74.9338 83.6598C73.0749 84.4442 71.2395 85.3404 69.534 86.3583L73.6577 89.3812ZM83.9965 80.2222L89.4039 84.141C92.1113 83.5508 94.5018 83.132 95.9922 82.9364L87.3998 79.5874C86.1246 79.7547 85.0554 79.9509 83.9965 80.2222ZM111.143 87.5324C111.143 87.5324 111.925 87.233 112.382 86.9707C112.818 86.7208 113.427 86.2366 113.427 86.2366L129.756 101.434L130.413 100.83L134.674 104.686L133.958 105.345L157.629 127.375H168.85C169.777 127.375 170.529 128.06 170.529 128.906C170.529 129.752 169.777 130.438 168.85 130.438H143.952C143.025 130.438 142.273 129.752 142.273 128.906C142.273 128.06 143.025 127.375 143.952 127.375H153.848L132.082 107.068L131.309 107.779L127.048 103.923L127.886 103.153L111.143 87.5324ZM169.497 131.458H143.305V133.701H169.497V131.458Z" fill="black"/>
<path fill-rule="evenodd" clip-rule="evenodd" d="M49.365 67.0713H9.49243V119.733C10.5844 119.25 11.81 118.98 13.1047 118.98C17.3343 118.98 20.8247 121.866 21.3371 125.597H37.0963C37.6087 121.866 41.0991 118.98 45.3286 118.98C46.7938 118.98 48.1703 119.326 49.365 119.934V67.0713ZM45.3286 132.529C48.9517 132.529 51.8887 129.851 51.8887 126.547C51.8887 123.242 48.9517 120.564 45.3286 120.564C41.7056 120.564 38.7686 123.242 38.7686 126.547C38.7686 129.851 41.7056 132.529 45.3286 132.529ZM45.3286 130.228C47.5579 130.228 49.365 128.58 49.365 126.547C49.365 124.514 47.5579 122.865 45.3286 122.865C43.0994 122.865 41.2922 124.514 41.2922 126.547C41.2922 128.58 43.0994 130.228 45.3286 130.228ZM19.6648 126.547C19.6648 129.851 16.7278 132.529 13.1047 132.529C9.48172 132.529 6.54468 129.851 6.54468 126.547C6.54468 123.242 9.48172 120.564 13.1047 120.564C16.7278 120.564 19.6648 123.242 19.6648 126.547ZM17.1411 126.547C17.1411 128.58 15.334 130.228 13.1047 130.228C10.8755 130.228 9.06835 128.58 9.06835 126.547C9.06835 124.514 10.8755 122.865 13.1047 122.865C15.334 122.865 17.1411 124.514 17.1411 126.547Z" fill="#6999DC"/>
<path d="M0.263428 114.801C0.263414 117.937 4.89834 118.442 7.9645 118.832V109.858C5.07661 110.216 0.263441 111.614 0.263428 114.801Z" fill="black"/>
<path fill-rule="evenodd" clip-rule="evenodd" d="M102.586 30.6886C102.344 30.8187 102.134 30.9882 101.961 31.1999C100.319 33.2103 103.058 37.6042 108.079 41.014C109.071 41.6876 110.077 42.2725 111.067 42.7619C107.785 46.733 101.798 48.2085 96.6635 46.0144C90.7707 43.4964 88.232 37.0986 90.9931 31.7246C93.7542 26.3506 100.77 24.0353 106.662 26.5534C109.744 27.8702 111.908 30.2482 112.877 32.9858C113.206 33.1601 113.536 33.3422 113.866 33.5318C119.162 36.5748 122.506 40.4153 121.336 42.1097C120.165 43.8041 114.923 42.7109 109.627 39.6679C104.331 36.6249 100.986 32.7845 102.157 31.0901C102.266 30.9323 102.41 30.7987 102.586 30.6886ZM65.5711 54.2788C65.2081 55.802 69.0507 59.4941 71.0174 61.1497C70.3698 62.5392 68.8407 65.9308 67.906 68.3816L67.8674 68.4829C66.6862 71.5786 64.3765 77.6315 66.5916 83.033C66.6394 83.1496 66.6932 83.2603 66.7527 83.3653C67.1667 84.3058 67.8452 85.1644 68.7759 85.8415L73.6554 89.3917L73.6602 89.3865L90.2821 101.487L90.2813 101.488L91.9266 102.685L101.289 128.299C102.45 131.477 106.217 133.195 109.702 132.136C113.186 131.076 115.07 127.641 113.908 124.463L103.3 95.4421L83.4013 80.9642L83.4361 80.9462L85.5835 77.0843V77.8044L107.996 86.3104C110.031 87.0826 112.367 86.2044 113.214 84.3487C114.06 82.4931 113.097 80.3628 111.063 79.5906L93.5646 72.9498V62.7316L93.8919 62.143C93.8919 62.143 97.7794 55.1467 95.9796 50.3053C94.9229 47.4629 84.8147 43.3517 76.2822 45.6696C67.7497 47.9875 66.025 52.3749 65.5711 54.2788ZM89.1025 101.817L74.5918 91.3126C74.8138 92.7413 75.0392 94.2695 75.2373 95.8336C75.7776 100.101 76.0398 104.115 75.6717 106.852C74.9105 112.512 70.7212 119.964 68.5757 123.053C66.6103 125.883 67.5327 129.63 70.6359 131.423C73.739 133.215 77.8479 132.374 79.8132 129.544C82.2667 126.011 87.7477 116.708 88.8745 108.328C89.1461 106.309 89.1898 104.073 89.1025 101.817Z" fill="black"/>
</svg>
