<svg width="170" height="135" viewBox="0 0 170 135" fill="none" xmlns="http://www.w3.org/2000/svg">
<path fill-rule="evenodd" clip-rule="evenodd" d="M44.4804 27.4185C40.516 27.4185 37.3022 30.4823 37.3022 34.2618C37.3022 38.0413 40.516 41.1052 44.4804 41.1052H83.1491V130.216C83.1491 130.216 83.1491 135 88.9733 135C94.9203 135 95.198 130.216 95.198 130.216L98.4043 84.1742H100.275L103.548 130.216C103.548 130.216 103.948 135 109.25 135C115.244 135 115.237 130.216 115.237 130.216L116.029 83.8219V82.7095C116.029 82.7095 109.424 81.8788 109.424 73.8757C109.424 71.0775 112.799 67.2066 112.799 67.2066L116.776 62.403V46.3013L127.749 50.5461L112.134 70.6001C109.771 73.6348 110.435 77.9212 113.619 80.174C116.802 82.4268 121.298 81.793 123.661 78.7583L145.944 50.1412C145.944 50.1412 147.162 48.7541 146.473 45.7887C145.784 42.8234 142.815 41.5457 142.815 41.5457L105.723 27.4185C105.723 27.4185 101.596 30.2359 96.061 30.2359C90.526 30.2359 84.1524 27.4185 84.1524 27.4185H44.4804Z" fill="black"/>
<path fill-rule="evenodd" clip-rule="evenodd" d="M30.947 45.9116C29.1451 45.9116 27.6842 47.3043 27.6842 49.0223V85.9311C27.6842 87.6491 29.1451 89.0418 30.947 89.0418H69.4792C71.2812 89.0418 72.7421 87.6491 72.7421 85.9311V49.0223C72.7421 47.3043 71.2812 45.9116 69.4792 45.9116H30.947ZM55.9594 48.7812H44.4669V58.5202L50.2132 61.773L55.9594 58.5202V48.7812Z" fill="#6999DC"/>
<path fill-rule="evenodd" clip-rule="evenodd" d="M30.947 91.8701C29.145 91.8701 27.6842 93.2628 27.6842 94.9808V131.89C27.6842 133.608 29.145 135 30.947 135H69.4792C71.2812 135 72.7421 133.608 72.7421 131.89V94.9807C72.7421 93.2628 71.2812 91.8701 69.4792 91.8701H30.947ZM55.9594 94.7397H44.4669V104.479L50.2132 107.731L55.9594 104.479V94.7397Z" fill="black"/>
<path fill-rule="evenodd" clip-rule="evenodd" d="M98.744 7.76949C98.8711 8.05344 98.9401 8.35549 98.9456 8.67571C98.9979 11.7177 93.3732 14.3241 86.3825 14.4971C85.0014 14.5313 83.6702 14.468 82.4227 14.3208C82.5616 20.3548 86.9374 25.6425 93.1628 26.7476C100.307 28.0159 107.183 23.2951 108.519 16.2032C109.856 9.11137 105.147 2.33412 98.0024 1.06579C94.266 0.402494 90.6033 1.37719 87.7679 3.47238C87.3452 3.4352 86.9159 3.40496 86.481 3.38211C79.5022 3.01533 73.7239 4.68605 73.5746 7.11377C73.4253 9.54148 78.9617 11.8069 85.9404 12.1736C92.9191 12.5404 98.6975 10.8697 98.8468 8.44197C98.8607 8.21594 98.8253 7.99131 98.744 7.76949Z" fill="black"/>
</svg>
