<svg width="170" height="135" viewBox="0 0 170 135" fill="none" xmlns="http://www.w3.org/2000/svg">
<path fill-rule="evenodd" clip-rule="evenodd" d="M4.65256 4.52469V84.1514H103.003V4.52469H4.65256ZM3.65558 0C1.63666 0 0 1.59167 0 3.55511V85.1209C0 87.0844 1.63665 88.676 3.65557 88.676H41.3539L21.9922 128.817C21.0178 130.837 21.9118 133.242 23.9888 134.19C26.0659 135.137 28.5395 134.268 29.5138 132.248L50.5272 88.6834L50.5111 88.676H55.3675L76.2163 132.237C77.1845 134.26 79.6554 135.137 81.7354 134.195C83.8153 133.254 84.7166 130.85 83.7485 128.828L64.5316 88.676H104C106.018 88.676 107.655 87.0844 107.655 85.1209V3.55511C107.655 1.59168 106.018 0 104 0H3.65558Z" fill="black"/>
<path fill-rule="evenodd" clip-rule="evenodd" d="M60.4775 11.4741L56.4299 16.2359L62.1105 20.8029C59.4164 21.132 56.6326 21.8358 53.8818 23.1909C49.5875 25.3063 45.6443 28.8746 42.2545 34.5107C39.7869 38.6135 39.0894 44.05 39.043 48.7691C39.0061 52.5272 39.3826 56.1602 39.8411 58.9252C37.5091 60.6306 36.001 63.3441 36.001 66.4001C36.001 71.5621 40.3039 75.7467 45.6118 75.7467C50.9196 75.7467 55.2225 71.5621 55.2225 66.4001C55.2225 61.4546 51.2729 57.4062 46.2739 57.0753C45.9294 54.753 45.6598 51.8292 45.6892 48.8308C45.7325 44.4304 46.4195 40.3882 47.9917 37.7742C50.8411 33.0365 53.9024 30.4265 56.8852 28.9572C58.9511 27.9395 61.1079 27.4053 63.3446 27.1702L58.1993 33.2084L63.0908 37.1506L70.9611 27.9144L70.9583 27.9121L75.004 23.1526L60.4775 11.4741ZM49.8472 66.4001C49.8472 68.6749 47.951 70.519 45.6119 70.519C43.2728 70.519 41.3766 68.6749 41.3766 66.4001C41.3766 64.1253 43.2728 62.2812 45.6119 62.2812C47.951 62.2812 49.8472 64.1253 49.8472 66.4001Z" fill="#6999DC"/>
<path fill-rule="evenodd" clip-rule="evenodd" d="M34.1414 17.2827L37.6676 20.579L32.6077 25.6984L37.808 30.6828L34.3747 34.0706L29.218 29.1279L24.2005 34.2043L20.6743 30.908L25.7342 25.7887L20.5339 20.8042L23.9672 17.4164L29.1239 22.3591L34.1414 17.2827ZM89.289 38.2176L92.8153 41.514L87.7554 46.6333L92.9556 51.6178L89.5223 55.0056L84.3656 50.0629L79.3481 55.1393L75.8219 51.8429L80.8818 46.7236L75.6815 41.7391L79.1149 38.3514L84.2716 43.2941L89.289 38.2176Z" fill="black"/>
<path fill-rule="evenodd" clip-rule="evenodd" d="M138.804 34.3816C146.85 34.3816 153.373 28.038 153.373 20.2128C153.373 12.3875 146.85 6.04395 138.804 6.04395C130.758 6.04395 124.235 12.3875 124.235 20.2128C124.235 28.038 130.758 34.3816 138.804 34.3816ZM138.258 42.7967L134.14 37.2379C131.063 37.461 128.083 37.9352 125.476 38.596C123.627 39.0649 121.844 39.6579 120.298 40.3896C118.877 41.0625 117.105 42.1051 115.878 43.7295L115.41 44.3494L108.254 64.1413L90.3732 72.2749L63.9183 46.5183C63.3459 45.9611 62.4174 45.9606 61.8444 46.5172C61.2714 47.0738 61.2709 47.9768 61.8433 48.5341L87.5716 73.5833C85.2838 74.9363 84.3632 77.7766 85.5237 80.1896C86.7679 82.7765 89.9329 83.8927 92.5929 82.6827L116.804 71.6693L122.398 56.2003C122.425 56.1456 122.452 56.0883 122.48 56.0286C124.115 52.5491 124.523 55.8317 124.523 57.9079L124.539 57.8882L124.539 128.698C124.539 132.178 127.441 135 131.02 135C134.599 135 137.5 132.178 137.5 128.698V91.2245H140.286V128.652C140.286 132.158 143.188 135 146.767 135C150.346 135 153.247 132.158 153.247 128.652L153.247 57.9217L153.253 57.929C153.253 56.1428 153.548 53.4638 154.647 54.9656C155.152 56.3426 155.678 57.8251 156.194 59.3079C157.092 61.8922 157.94 64.4286 158.565 66.3224C158.877 67.2683 159.133 68.0516 159.311 68.5974L159.321 68.6306L158.749 89.1118C158.669 91.9666 160.984 94.3438 163.92 94.4214C166.855 94.499 169.3 92.2476 169.38 89.3927L170 67.1857L169.736 66.3645L164.661 67.9053C169.736 66.3645 169.736 66.364 169.736 66.364L169.736 66.3631L169.661 66.1306C169.613 65.9804 169.542 65.7609 169.451 65.4815C169.269 64.9229 169.009 64.1246 168.691 63.1616C168.056 61.2378 167.19 58.6477 166.268 55.9968C165.351 53.3571 164.362 50.608 163.485 48.3842C163.049 47.2789 162.616 46.239 162.213 45.3826C162.013 44.9567 161.793 44.5169 161.56 44.11C161.375 43.7869 160.998 43.1521 160.436 42.5659C159.643 41.7398 158.72 41.1987 158.077 40.8655C157.364 40.4965 156.59 40.1799 155.827 39.9075C154.298 39.3614 152.483 38.8776 150.583 38.4749C148.38 38.0079 145.906 37.6174 143.407 37.3723L139.449 42.7967L140.028 47.4888C140.114 47.4931 140.2 47.4977 140.286 47.5026V49.5871L143.76 77.766L138.706 83.615L133.971 77.766L137.5 48.9757V47.4405L137.59 47.4394L137.689 47.4384L138.258 42.7967Z" fill="black"/>
</svg>
