<svg width="170" height="135" viewBox="0 0 170 135" fill="none" xmlns="http://www.w3.org/2000/svg">
<path fill-rule="evenodd" clip-rule="evenodd" d="M66.0622 0.00414838C65.2438 -0.0557538 64.5304 0.540128 64.4687 1.33508L61.8322 35.323C61.7705 36.1179 62.384 36.8109 63.2024 36.8708L111.73 40.4229C112.549 40.4828 113.262 39.8869 113.324 39.092L115.96 5.10409C116.022 4.30913 115.409 3.61613 114.59 3.55623L66.0622 0.00414838ZM70.2001 5.74136L67.8128 5.56389L65.637 33.1807L68.0242 33.3582L70.2001 5.74136ZM62.9381 40.3156C62.1197 40.2557 61.4063 40.8516 61.3446 41.6465L58.5774 77.3191L62.2919 79.3296L64.8446 45.0235L67.2326 45.1912L64.5632 81.0656C65.7755 82.6374 65.9986 84.8175 64.9509 86.644C64.7047 87.0731 64.4045 87.4546 64.0632 87.7848L61.8912 116.974L59.5032 116.807L61.562 89.1379C60.32 89.4262 58.9674 89.2805 57.764 88.6291L57.7026 88.5959L55.2969 119.608C55.2352 120.403 55.8487 121.096 56.6671 121.156L105.195 124.708C106.014 124.768 106.727 124.172 106.789 123.377L109.897 83.3088L109.164 83.4827C106.33 84.1557 103.47 82.4692 102.778 79.7158C102.085 76.9625 103.821 74.1849 106.655 73.5119L110.732 72.5441L112.836 45.4155C112.898 44.6206 112.285 43.9276 111.466 43.8677L62.9381 40.3156ZM105.743 126.599L98.1364 126.012L97.942 128.39L105.548 128.977L105.743 126.599ZM60.3697 123.22L63.8088 123.492L63.6145 125.869L60.9142 125.618L60.3697 123.22Z" fill="#6999DC"/>
<path fill-rule="evenodd" clip-rule="evenodd" d="M51.5552 23.3604C52.4656 25.174 48.6041 28.8226 42.9305 31.5098C38.5585 33.5806 34.3862 34.4762 32.2854 33.9483C34.3451 34.7206 38.4733 34.5174 42.9812 33.2716C43.9394 33.0069 44.8576 32.7108 45.7221 32.3923C46.0602 33.4154 46.2428 34.5063 46.2428 35.6386C46.2428 41.4984 41.3526 46.2487 35.3201 46.2487C29.2877 46.2487 24.3974 41.4984 24.3974 35.6386C24.3974 29.7788 29.2877 25.0285 35.3201 25.0285C36.4349 25.0285 37.5106 25.1907 38.5237 25.4921C38.8852 25.3052 39.2555 25.1217 39.634 24.9424C45.3076 22.2552 50.6449 21.5469 51.5552 23.3604ZM21.8083 60.2537C23.3822 54.2079 25.6559 51.4452 27.5261 50.0034C28.7974 49.0233 32.8086 47.2593 36.269 48.4362C37.0605 48.582 37.8126 48.9663 38.4006 49.5839L50.4699 63.0916L61.948 66.6969V74.561L46.1489 69.7487L38.3392 60.993C38.3392 61.304 38.3382 61.6175 38.3361 61.9331L42.6262 70.5385L61.7647 80.6069C63.6981 81.5069 64.514 83.7505 63.5871 85.6182C62.6602 87.4858 60.3414 88.2702 58.408 87.3702L37.768 76.1378C37.6728 77.5549 37.5732 78.8779 37.4753 80.0588V80.8232C37.4753 81.9826 37.4517 83.2283 37.3226 84.4345L54.3113 99.9735L54.9481 102.793L53.6305 120.237C53.5344 121.509 54.5182 122.616 55.8278 122.71L59.5056 122.972L60.48 127.286C61.2538 130.713 59.0218 134.099 55.4946 134.851C51.9674 135.603 48.4807 133.435 47.7069 130.008L42.4043 106.53L36.6223 101.242V111.808L21.0854 132.402C18.9508 135.231 14.8592 135.844 11.9466 133.77C9.03396 131.697 8.40324 127.722 10.5378 124.893L23.5455 107.652V88.9992C22.1826 87.9094 21.0669 86.3095 20.449 84.0198C18.9038 78.2937 19.4623 69.2656 21.8083 60.2537Z" fill="black"/>
<path fill-rule="evenodd" clip-rule="evenodd" d="M120.646 22.759C119.652 24.5436 123.511 28.3096 129.266 31.1704C133.701 33.375 137.967 34.3989 140.147 33.936C138.002 34.6445 133.759 34.314 129.158 32.9299C128.18 32.6357 127.244 32.3114 126.364 31.9664C125.984 32.9787 125.761 34.0634 125.725 35.1951C125.539 41.0522 130.423 45.951 136.632 46.137C142.842 46.3229 148.027 41.7257 148.213 35.8686C148.399 30.0116 143.515 25.1128 137.306 24.9268C136.158 24.8925 135.046 25.0214 133.993 25.2915C133.627 25.0935 133.252 24.8986 132.868 24.7078C127.113 21.8469 121.641 20.9744 120.646 22.759ZM125.157 65.175L134.137 58.9834L134.136 59.0354L125.437 70.5238L106.917 74.9911C104.846 75.4906 103.584 77.5264 104.098 79.538C104.613 81.5497 106.708 82.7755 108.779 82.2759L130.008 77.1552L134.41 71.3426C134.571 74.5557 134.78 77.585 134.981 80.0118V80.7728C134.981 81.8584 135.002 83.02 135.111 84.1534L118.336 100.051L112.389 127.331C111.641 130.763 113.899 134.134 117.431 134.861C120.964 135.587 124.434 133.394 125.182 129.963L130.307 106.452L135.42 101.607V111.749L150.396 132.315C152.481 135.179 156.561 135.858 159.51 133.832C162.458 131.807 163.157 127.843 161.072 124.979L148.497 107.711V89.1782C150.013 88.0933 151.264 86.4284 151.931 83.9551C153.47 78.2545 152.914 69.2667 150.578 60.295C149.011 54.2762 146.748 51.5258 144.886 50.0904C143.903 49.333 141.277 48.1054 138.54 48.142C137.516 47.9401 136.415 48.1319 135.502 48.7608L123.25 57.2086L104.505 53.923C102.383 53.5511 100.365 54.9058 99.9964 56.9488C99.6282 58.9918 101.05 60.9496 103.172 61.3215L125.157 65.175Z" fill="black"/>
</svg>
