<svg width="170" height="135" viewBox="0 0 170 135" fill="none" xmlns="http://www.w3.org/2000/svg">
<path d="M106.072 110.688V44.2256H6.15599C4.10399 44.2256 0 45.1551 0 50.7324C0 56.3097 4.26184 57.704 6.15599 57.704H20.8357C22.0984 58.0139 24.624 59.5631 24.624 63.2813C24.624 66.9995 22.0984 67.9291 20.8357 67.9291H16.1003C16.1003 67.9291 11.3649 67.9291 11.3649 73.0416C11.3649 78.1541 14.6797 79.0837 16.1003 79.0837H51.6156C53.6676 79.0837 57.7716 80.385 57.7716 85.5905C57.7716 90.796 53.6676 92.4072 51.6156 92.5621H8.52368C7.10306 92.5621 0 93.0269 0 101.858C0 108.922 5.68245 110.688 8.52368 110.688H18.5455C18.5455 110.688 21.6364 99.5781 34 99.5781C46.3636 99.5781 50.2273 110.688 50.2273 110.688H106.072Z" fill="#6999DC"/>
<path fill-rule="evenodd" clip-rule="evenodd" d="M115.543 56.7746H61.5599V51.1973H115.543V56.7746ZM102.284 60.028H107.967V62.3518H152.235L170 79.7877V113.012H152.006V107.435H164.318V82.0979L149.882 67.9291H107.967V91.1678H102.284V60.028ZM96.6017 70.253H53.5097V64.6757H96.6017V70.253ZM132.117 70.253H137.799V85.5906H162.423V91.1678H132.117V70.253ZM91.3927 88.844H64.4011V83.2667H91.3927V88.844ZM115.543 99.9986H75.2925V94.4213H115.543V99.9986ZM102.284 102.322H107.967V107.435H118.858V113.012H102.284V102.322Z" fill="black"/>
<path fill-rule="evenodd" clip-rule="evenodd" d="M34.0947 129.744C41.9405 129.744 48.3008 123.502 48.3008 115.801C48.3008 108.1 41.9405 101.858 34.0947 101.858C26.2489 101.858 19.8886 108.1 19.8886 115.801C19.8886 123.502 26.2489 129.744 34.0947 129.744ZM34.0947 134.392C44.5558 134.392 53.0362 126.068 53.0362 115.801C53.0362 105.533 44.5558 97.21 34.0947 97.21C23.6336 97.21 15.1532 105.533 15.1532 115.801C15.1532 126.068 23.6336 134.392 34.0947 134.392Z" fill="black"/>
<path fill-rule="evenodd" clip-rule="evenodd" d="M135.432 129.744C143.278 129.744 149.638 123.502 149.638 115.801C149.638 108.1 143.278 101.858 135.432 101.858C127.586 101.858 121.226 108.1 121.226 115.801C121.226 123.502 127.586 129.744 135.432 129.744ZM135.432 134.392C145.893 134.392 154.373 126.068 154.373 115.801C154.373 105.533 145.893 97.21 135.432 97.21C124.971 97.21 116.49 105.533 116.49 115.801C116.49 126.068 124.971 134.392 135.432 134.392Z" fill="black"/>
<path fill-rule="evenodd" clip-rule="evenodd" d="M34.0947 119.519C36.1869 119.519 37.883 117.854 37.883 115.801C37.883 113.747 36.1869 112.083 34.0947 112.083C32.0025 112.083 30.3064 113.747 30.3064 115.801C30.3064 117.854 32.0025 119.519 34.0947 119.519ZM34.0947 124.167C38.8022 124.167 42.6184 120.421 42.6184 115.801C42.6184 111.181 38.8022 107.435 34.0947 107.435C29.3872 107.435 25.571 111.181 25.571 115.801C25.571 120.421 29.3872 124.167 34.0947 124.167Z" fill="black"/>
<path fill-rule="evenodd" clip-rule="evenodd" d="M135.432 119.519C137.524 119.519 139.22 117.854 139.22 115.801C139.22 113.747 137.524 112.083 135.432 112.083C133.34 112.083 131.643 113.747 131.643 115.801C131.643 117.854 133.34 119.519 135.432 119.519ZM135.432 124.167C140.139 124.167 143.955 120.421 143.955 115.801C143.955 111.181 140.139 107.435 135.432 107.435C130.724 107.435 126.908 111.181 126.908 115.801C126.908 120.421 130.724 124.167 135.432 124.167Z" fill="black"/>
</svg>
