<svg width="54" height="54" viewBox="0 0 54 54" fill="none" xmlns="http://www.w3.org/2000/svg">
<g clip-path="url(#clip0_191_1697)">
<path d="M51.8883 46.5556H2.11054C1.63905 46.5556 1.18686 46.3683 0.853463 46.0349C0.520065 45.7015 0.332764 45.2493 0.332764 44.7778C0.332764 44.3063 0.520065 43.8541 0.853463 43.5207C1.18686 43.1873 1.63905 43 2.11054 43H51.8883C52.3598 43 52.812 43.1873 53.1454 43.5207C53.4788 43.8541 53.6661 44.3063 53.6661 44.7778C53.6661 45.2493 53.4788 45.7015 53.1454 46.0349C52.812 46.3683 52.3598 46.5556 51.8883 46.5556Z" fill="black"/>
<path d="M51.8883 28.7778H2.11054C1.63905 28.7778 1.18686 28.5905 0.853463 28.2571C0.520065 27.9237 0.332764 27.4715 0.332764 27C0.332764 26.5285 0.520065 26.0763 0.853463 25.7429C1.18686 25.4095 1.63905 25.2222 2.11054 25.2222H51.8883C52.3598 25.2222 52.812 25.4095 53.1454 25.7429C53.4788 26.0763 53.6661 26.5285 53.6661 27C53.6661 27.4715 53.4788 27.9237 53.1454 28.2571C52.812 28.5905 52.3598 28.7778 51.8883 28.7778Z" fill="black"/>
<path d="M51.8883 11H2.11054C1.63905 11 1.18686 10.8127 0.853463 10.4793C0.520065 10.1459 0.332764 9.69373 0.332764 9.22224C0.332764 8.75074 0.520065 8.29856 0.853463 7.96516C1.18686 7.63176 1.63905 7.44446 2.11054 7.44446H51.8883C52.3598 7.44446 52.812 7.63176 53.1454 7.96516C53.4788 8.29856 53.6661 8.75074 53.6661 9.22224C53.6661 9.69373 53.4788 10.1459 53.1454 10.4793C52.812 10.8127 52.3598 11 51.8883 11Z" fill="black"/>
</g>
<defs>
<clipPath id="clip0_191_1697">
<rect width="54" height="54" fill="white" transform="translate(-0.000488281)"/>
</clipPath>
</defs>
</svg>
