<svg width="37" height="37" viewBox="0 0 37 37" fill="none" xmlns="http://www.w3.org/2000/svg">
<path d="M17.6954 3.5667C17.9948 2.64539 19.2982 2.64539 19.5975 3.5667L22.4632 12.3864C22.5971 12.7984 22.9811 13.0773 23.4143 13.0773H32.6878C33.6565 13.0773 34.0593 14.317 33.2756 14.8864L25.7732 20.3372C25.4227 20.5919 25.276 21.0432 25.4099 21.4552L28.2756 30.2749C28.5749 31.1962 27.5204 31.9623 26.7367 31.3929L19.2343 25.9421C18.8838 25.6874 18.4092 25.6874 18.0587 25.9421L10.5562 31.3929C9.77254 31.9623 8.71805 31.1962 9.01741 30.2749L11.8831 21.4552C12.017 21.0432 11.8703 20.5919 11.5198 20.3372L4.01737 14.8864C3.23365 14.317 3.63643 13.0773 4.60515 13.0773H13.8787C14.3119 13.0773 14.6959 12.7984 14.8297 12.3864L17.6954 3.5667Z" fill="#FECE00"/>
</svg>
