<svg width="111" height="111" viewBox="0 0 111 111" fill="none" xmlns="http://www.w3.org/2000/svg">
<path d="M62.3467 57.2006H68.0979V59.4506H62.3467V57.2006Z" fill="black"/>
<path d="M71.7537 57.2006H77.5049V59.4506H71.7537V57.2006Z" fill="black"/>
<path d="M62.3467 63.6572L62.3467 78.7005L60.0967 78.7005L60.0967 63.6572L62.3467 63.6572Z" fill="black"/>
<path d="M108.874 63.6572L108.874 78.7005L106.624 78.7005L106.624 63.6572L108.874 63.6572Z" fill="black"/>
<path d="M107.866 99.2088L107.108 110.939L104.745 110.939L103.988 99.2088H107.866Z" fill="black"/>
<path d="M57.8469 61.4047H110.5V63.6572H57.8469V61.4047Z" fill="black"/>
<path d="M57.8469 78.7005H110.5V80.953H57.8469V78.7005Z" fill="black"/>
<path d="M57.8469 95.7753H110.5V98.0278H57.8469V95.7753Z" fill="black"/>
<path fill-rule="evenodd" clip-rule="evenodd" d="M108.874 82.1341H59.4314V94.5943H108.874V82.1341ZM84.1355 88.3557C85.1093 88.3557 85.8987 87.5662 85.8987 86.5925C85.8987 85.6187 85.1093 84.8293 84.1355 84.8293C83.1617 84.8293 82.3723 85.6187 82.3723 86.5925C82.3723 87.5662 83.1617 88.3557 84.1355 88.3557Z" fill="#6999DC"/>
<path fill-rule="evenodd" clip-rule="evenodd" d="M93.7778 100.179H44.335V110.939H93.7778V100.179ZM69.0564 106.559C70.0302 106.559 70.8196 105.77 70.8196 104.796C70.8196 103.822 70.0302 103.033 69.0564 103.033C68.0826 103.033 67.2932 103.822 67.2932 104.796C67.2932 105.77 68.0826 106.559 69.0564 106.559Z" fill="#6999DC"/>
<path fill-rule="evenodd" clip-rule="evenodd" d="M24.2011 52.2541C24.0904 52.4156 24.0133 52.5945 23.9729 52.7917C23.5895 54.6646 26.7363 56.8908 31.0015 57.764C31.8442 57.9366 32.6675 58.0434 33.4492 58.0893C32.6671 61.8004 29.3739 64.5861 25.4301 64.5861C20.904 64.5861 17.2349 60.9169 17.2349 56.3908C17.2349 51.8647 20.904 48.1955 25.4301 48.1955C27.7971 48.1955 29.9298 49.199 31.4258 50.8037C31.6892 50.8271 31.9559 50.8555 32.2251 50.8891C36.5454 51.4277 39.8945 53.0929 39.7056 54.6085C39.5166 56.1241 35.8612 56.9162 31.5409 56.3776C27.2207 55.839 23.8715 54.1738 24.0605 52.6582C24.0781 52.5171 24.1257 52.3822 24.2011 52.2541Z" fill="black"/>
<path fill-rule="evenodd" clip-rule="evenodd" d="M42.6614 70.3019C43.5417 71.7056 43.1174 73.5571 41.7137 74.4374L28.5139 82.7151L17.7647 74.253C16.4629 73.2281 16.2384 71.3419 17.2632 70.0401C18.2881 68.7382 20.1743 68.5137 21.4761 69.5385L28.9055 75.3873L38.526 69.3542C39.9296 68.4739 41.7811 68.8983 42.6614 70.3019Z" fill="black"/>
<path fill-rule="evenodd" clip-rule="evenodd" d="M9.61194 79.8489C9.92312 77.325 11.3906 70.6644 12.6543 69.0273C14.1755 67.0566 17.2528 64.1178 20.4681 65.155C20.6081 65.2002 20.7456 65.2436 20.8805 65.2862C23.1104 65.9906 24.6244 66.4689 24.5343 70.6735L22.0945 68.7528C20.3587 67.3863 17.8438 67.6857 16.4773 69.4215C15.1109 71.1573 15.4102 73.6722 17.146 75.0387L23.2799 79.8676C22.4674 85.1091 22.3876 87.4149 22.4734 87.9392L34.3668 84.8967C36.2453 84.332 40.189 84.0877 40.9358 87.628C41.7037 91.2683 42.5417 98.979 42.8727 102.024C42.9441 102.681 42.9919 103.12 43.0103 103.255C43.0932 103.864 43.0448 108.626 43.0103 110.931H34.6088L32.6381 94.5773L23.3378 97.0321C20.1339 97.7466 13.2699 98.4842 11.4444 95.7183C8.54069 91.3189 9.05441 85.9061 9.44084 81.8343C9.50787 81.1281 9.57107 80.4622 9.61194 79.8489Z" fill="black"/>
<path fill-rule="evenodd" clip-rule="evenodd" d="M37.2189 64.8784C36.1591 64.8784 35.3 65.7375 35.3 66.7973C35.3 67.857 36.1591 68.7161 37.2189 68.7161H37.6611L37.9945 68.507C39.8011 67.3741 42.1641 67.8619 43.3816 69.5805H44.2202V68.7161H45.0845V68.1975H45.8105V67.8518H48.6111V67.2294H56.3557V66.3651H48.6111V65.7428H45.8105V65.397H45.0845V64.8784H37.2189ZM44.5315 77.3942H38.8808L42.2448 75.2846C42.6266 75.0452 42.954 74.7519 43.2234 74.4208H44.5315V77.3942ZM36.8103 65.9992H40.8679V66.3871H36.8103V65.9992ZM36.8103 67.0733H40.8679V67.4612H36.8103V67.0733Z" fill="black"/>
<path d="M18.707 98.9417C17.3945 98.9855 14.9842 98.6413 13.7076 98.4105L16.0839 104.082C12.1497 104.145 4.18702 104.308 3.80935 104.459C3.33725 104.648 2.06265 104.884 1.02398 106.773C0.193045 108.283 0.677757 110.109 1.02398 110.833H26.6588C27.7163 109.738 27.0995 107.418 26.6588 106.395L23.3477 98.2899C22.2568 98.6113 19.6848 98.9091 18.707 98.9417Z" fill="black"/>
<rect x="60.5967" y="1.43939" width="47.7776" height="61.7178" stroke="black"/>
</svg>
