<svg width="111" height="111" viewBox="0 0 111 111" fill="none" xmlns="http://www.w3.org/2000/svg">
<path fill-rule="evenodd" clip-rule="evenodd" d="M36.279 20.7393C36.279 25.2669 32.8343 28.9896 28.4238 29.4275L22.4358 27.8142C20.2473 26.2277 18.8238 23.6498 18.8238 20.7393C18.8238 15.9172 22.7313 12.0081 27.5514 12.0081C32.3716 12.0081 36.279 15.9172 36.279 20.7393ZM26.6757 58.5522L31.5048 40.0716L43.9514 42.919C44.7509 43.1315 46.5896 43.2265 47.5489 41.9068C48.5083 40.5872 52.8703 33.6591 54.9314 30.36C55.2936 29.3228 55.5309 26.9935 53.5823 25.9738C51.1465 24.6991 49.7599 25.5614 49.4601 25.9738C49.2203 26.3037 45.238 32.1845 43.2769 35.0837L15.1583 27.333C14.3214 27.0831 12.4151 26.8082 11.4858 27.7079C11.0437 28.1359 9.7728 29.4361 8.3264 30.9159L8.32629 30.916C6.73221 32.5468 4.92493 34.3958 3.77887 35.5357C3.02947 36.2812 2.88867 36.875 3.02947 38.9098C3.16849 40.9188 3.50512 45.5832 3.77898 48.6174L1.04337 58.5522C0.681119 59.7144 0.31637 62.3686 1.75538 63.6882C3.19439 65.0079 11.5736 72.5608 15.5833 76.1722L11.3113 96.5666C11.1489 98.2911 11.7085 101.988 15.2461 102.977C19.668 104.214 21.9165 100.428 22.1788 99.8282C22.3887 99.3483 25.7388 83.8576 27.3877 76.1722L15.396 65.4877L16.5952 64.8879L30.3856 77.2594L36.0442 99.6032C36.7313 101.203 39.0722 104.117 42.9395 102.977C47.7737 101.553 47.0617 96.979 46.9492 96.3416C46.8593 95.8318 43.0394 80.6585 41.1407 73.1356C41.1158 72.5982 40.7585 71.2386 39.5293 70.0989C38.3002 68.9593 30.4481 61.9262 26.6757 58.5522ZM55.7929 31.4846C57.5616 28.4855 55.5306 25.9362 54.294 25.0364C54.8936 23.8618 56.2652 21.295 56.9547 20.4253C57.6443 19.5555 58.5911 19.8129 58.9784 20.0503C59.6154 20.3877 61.0694 21.2125 61.7889 21.8123C62.5084 22.4122 62.3385 23.3619 62.1637 23.7618C59.6654 27.9856 54.5189 36.6207 53.9193 37.3705C53.3198 38.1203 52.2205 37.8579 51.7458 37.6329C52.3579 36.8332 54.0242 34.4838 55.7929 31.4846ZM63.7439 24.1529L62.941 23.6695L62.4578 24.4726L63.2607 24.956L63.7439 24.1529ZM62.7452 25.8129L61.9423 25.3295L61.4592 26.1325L62.2621 26.616L62.7452 25.8129ZM60.9436 26.9894L61.7465 27.4729L61.2634 28.276L60.4605 27.7925L60.9436 26.9894ZM60.7479 29.1328L59.945 28.6494L59.4618 29.4525L60.2647 29.9359L60.7479 29.1328ZM58.9463 30.3093L59.7492 30.7928L59.266 31.5959L58.4631 31.1124L58.9463 30.3093ZM58.7505 32.4528L57.9476 31.9693L57.4644 32.7724L58.2673 33.2558L58.7505 32.4528ZM56.9489 33.6293L57.7518 34.1127L57.2686 34.9158L56.4657 34.4324L56.9489 33.6293ZM56.7531 35.7727L55.9502 35.2892L55.4671 36.0923L56.27 36.5758L56.7531 35.7727ZM54.9515 36.9492L55.7544 37.4326L55.2713 38.2357L54.4684 37.7523L54.9515 36.9492Z" fill="black"/>
<path fill-rule="evenodd" clip-rule="evenodd" d="M83.2322 79.6227C83.2375 79.5863 83.2402 79.5497 83.2402 79.5129C83.2402 77.9056 78.1411 76.6026 71.8509 76.6026C65.6686 76.6026 60.6367 77.8613 60.4662 79.4306L60.4617 79.4305L60.4642 79.4511C60.4625 79.4717 60.4617 79.4922 60.4617 79.5129C60.4617 79.5957 60.4753 79.6778 60.5018 79.7589L63.1492 101.426C63.1323 101.465 63.1237 101.505 63.1237 101.546C63.1237 102.402 67.0002 103.097 71.7822 103.097C76.5642 103.097 80.4407 102.402 80.4407 101.546L80.4405 101.534L83.2403 79.6228L83.2322 79.6227ZM71.8509 81.2974C77.3695 81.2974 81.8432 80.4985 81.8432 79.5129C81.8432 78.5273 77.3695 77.7283 71.8509 77.7283C66.3323 77.7283 61.8586 78.5273 61.8586 79.5129C61.8586 80.4985 66.3323 81.2974 71.8509 81.2974Z" fill="#6999DC"/>
<path fill-rule="evenodd" clip-rule="evenodd" d="M68.9177 32.077V14.6727H51.4686V23.3942H50.5476V14.6727H38.683V13.7512H50.5476V5.13688L51.4686 5.13688V13.7512H68.9177V5.13684L69.8388 5.13684V13.7512H87.2878V5.13686H88.2089V13.7512H105.658V5.13686H106.579V13.7512H110.5V14.6727H106.579V32.077H110.5V32.9985H106.579V50.4028H110.5V51.3243H106.579V68.7287H110.5V69.6501H106.579V87.0545H110.403V87.9759H84.0751L84.2468 87.0545H87.2878V69.6501H69.8388V74.8415H68.9177V69.6501H51.4686L51.4686 87.0545H59.1911L59.3582 87.9759H46.5841L46.4223 87.0545H50.5476L50.5476 69.6501H41.1241L40.2778 68.7287H50.5476L50.5476 51.3243H38.683V50.4028H50.5476V40.9935L51.4686 39.6119V50.4028H68.9177V32.9985H60.9573L61.4459 32.077H68.9177ZM105.658 69.6501V87.0545H88.2089V69.6501H105.658ZM51.4686 68.7287H68.9177V51.3243H51.4686L51.4686 68.7287ZM69.8388 68.7287H87.2878V51.3243H69.8388V68.7287ZM88.2089 68.7287H105.658V51.3243H88.2089V68.7287ZM105.658 32.9985V50.4028H88.2089V32.9985H105.658ZM87.2878 32.9985V50.4028H69.8388V32.9985H87.2878ZM69.8388 32.077H87.2878V14.6727H69.8388V32.077ZM88.2089 32.077H105.658V14.6727H88.2089V32.077Z" fill="black"/>
<path fill-rule="evenodd" clip-rule="evenodd" d="M59.5288 98.4774H49.6283V100.371H59.8426L59.5288 98.4774ZM109.446 98.4774H82.6211L82.402 100.371H109.446V98.4774ZM24.8802 105.56H32.4171V106.586H24.8802V105.56ZM59.4085 105.56H49.6283V106.586H59.4085V105.56ZM85.7878 107.146H93.3247V108.171H85.7878V107.146ZM64.7022 109.914H57.1653V110.939H64.7022V109.914ZM71.232 109.914H75.1852V110.939H71.232V109.914ZM83.5046 108.888H79.5326V109.914H83.5046V108.888ZM83.9214 103.246H91.4583V104.271H83.9214V103.246ZM102.354 103.246H94.0347V104.271H102.354V103.246Z" fill="#6999DC"/>
</svg>
