<svg width="111" height="111" viewBox="0 0 111 111" fill="none" xmlns="http://www.w3.org/2000/svg">
<path fill-rule="evenodd" clip-rule="evenodd" d="M110.341 98.6546C109.116 101.715 108.361 101.945 107.35 102.253C107.05 102.345 106.726 102.444 106.361 102.626L105.665 102.632C105.675 102.443 105.68 102.252 105.68 102.061C105.68 96.0554 100.801 91.187 94.7831 91.187C88.7647 91.187 83.8859 96.0554 83.8859 102.061C83.8859 102.317 83.8947 102.57 83.9121 102.822C66.3142 102.974 46.0873 103.145 30.9287 103.266C30.9724 102.87 30.9948 102.468 30.9948 102.061C30.9948 96.0554 26.116 91.187 20.0976 91.187C14.0792 91.187 9.2004 96.0554 9.2004 102.061C9.2004 102.521 9.22898 102.974 9.28447 103.418C8.94968 103.419 8.67379 103.42 8.46007 103.42C2.09252 103.42 0.500633 99.7135 0.500633 97.8603C0.500633 88.656 0.500336 73.5126 0.500153 64.2849L0.500023 56.5597C0.500023 53.5958 2.88786 50.9999 6.07163 51C11.6554 51 19.1465 50.9334 26.8542 50.8649C42.9546 50.7217 60.0006 50.5702 62.5842 50.9999C66.4048 51.6353 69.4824 53.3826 70.5437 54.1769C76.3806 58.6776 89.4871 68.7909 95.2179 73.2387C96.6381 74.3409 97.9644 75.3183 99.1969 76.2265L99.1969 76.2265C104.181 79.8993 107.63 82.4409 109.545 87.5351C110.552 90.2155 110.659 97.8603 110.341 98.6546ZM81.6862 101.037V98.6546H32.7788V101.037H81.6862ZM55.1104 81.9755H59.1694V83.564H55.1104V81.9755ZM68.4222 81.9755H72.9309V83.564H68.4222V81.9755ZM5.40747 85.3365V83.2225L31.1318 83.1848V65.7711H31.7804L31.7652 83.1839L34.8938 83.1793L38.1798 85.3365H31.7633L31.7588 90.5351H31.1318V85.3365H5.40747ZM70.0268 62.3861V61.778H2.26586V62.3861H70.0268ZM63.2023 65.8228H63.8136V96.8333H63.2023V65.8228ZM80.7228 66.181L88.6348 72.07C88.8078 72.1634 89.3353 72.5229 90.0617 73.2132C90.788 73.9035 91.4452 75.884 91.4452 76.9484V79.9003C91.4452 80.8495 91.4452 81.7986 90.6453 82.4026C90.0054 82.8858 89.0384 82.8484 88.6348 82.7693C83.2232 81.6548 71.9936 79.3308 70.368 78.9512C68.7423 78.5715 68.235 77.0529 68.1846 76.341C68.1702 73.6949 68.15 68.1698 68.1846 67.2379C68.2278 66.073 69.1142 65.1455 69.8059 65.1455C69.9558 65.1455 70.1691 65.1475 70.4569 65.1503H70.4569H70.457C71.4972 65.1601 73.5117 65.1793 77.0335 65.1455C79.1384 65.1253 80.1442 65.7955 80.6918 66.1603L80.7228 66.181ZM58.1725 65.2587C58.7247 65.2587 59.1725 65.7064 59.1725 66.2587V77.6073C59.1725 78.1596 58.7247 78.6073 58.1725 78.6073H47.0207C46.4684 78.6073 46.0207 78.1596 46.0207 77.6073V66.2587C46.0207 65.7064 46.4684 65.2587 47.0207 65.2587H58.1725ZM3.75399 65.5507C3.75399 65.1922 3.4634 64.9016 3.10494 64.9016H2.33662C1.97816 64.9016 1.68757 65.1922 1.68757 65.5507V74.4442C1.68757 74.8026 1.97816 75.0932 2.33662 75.0932H3.10494C3.4634 75.0932 3.75399 74.8026 3.75399 74.4442V65.5507ZM3.09055 92.3685C3.45055 92.3685 3.7424 92.6604 3.7424 93.0204V96.5271C3.7424 96.8871 3.45055 97.1789 3.09055 97.1789H2.31889C1.95889 97.1789 1.66704 96.8871 1.66704 96.5271V93.0204C1.66704 92.6604 1.95889 92.3685 2.31889 92.3685H3.09055ZM104.514 86.8019C105.979 88.3807 107.599 89.2608 108.133 88.7677C108.666 88.2746 107.911 86.5951 106.446 85.0163C104.981 83.4376 103.361 82.5575 102.827 83.0506C102.293 83.5436 103.049 85.2232 104.514 86.8019ZM86.722 102.066C86.722 106.531 90.3492 110.151 94.8236 110.151C99.298 110.151 102.925 106.531 102.925 102.066C102.925 97.6016 99.298 93.9822 94.8236 93.9822C90.3492 93.9822 86.722 97.6016 86.722 102.066ZM89.376 102.066C89.376 105.069 91.815 107.502 94.8236 107.502C97.8323 107.502 100.271 105.069 100.271 102.066C100.271 99.0642 97.8323 96.6305 94.8236 96.6305C91.815 96.6305 89.376 99.0642 89.376 102.066ZM94.8234 104.569C93.4383 104.569 92.3155 103.449 92.3155 102.066C92.3155 100.684 93.4383 99.5639 94.8234 99.5639C96.2085 99.5639 97.3313 100.684 97.3313 102.066C97.3313 103.449 96.2085 104.569 94.8234 104.569ZM96.1961 97.8546C96.1961 97.6559 96.035 97.4948 95.8362 97.4948H93.8106C93.6118 97.4948 93.4507 97.6559 93.4507 97.8546V98.2782C93.4507 98.4769 93.6118 98.6381 93.8106 98.6381H95.8362C96.035 98.6381 96.1961 98.4769 96.1961 98.2782V97.8546ZM95.8362 105.599C96.035 105.599 96.1961 105.76 96.1961 105.959V106.382C96.1961 106.581 96.035 106.742 95.8362 106.742H93.8106C93.6118 106.742 93.4507 106.581 93.4507 106.382V105.959C93.4507 105.76 93.6118 105.599 93.8106 105.599H95.8362ZM99.1808 101.043C99.35 100.939 99.4024 100.717 99.2978 100.548L98.2338 98.8293C98.1292 98.6603 97.9073 98.6079 97.7381 98.7121L97.376 98.9353C97.2068 99.0396 97.1545 99.2611 97.2591 99.4301L98.323 101.149C98.4276 101.318 98.6496 101.37 98.8188 101.266L99.1808 101.043ZM92.3882 104.807C92.4928 104.976 92.4404 105.198 92.2712 105.302L91.9092 105.525C91.74 105.629 91.518 105.577 91.4134 105.408L90.3495 103.689C90.2449 103.52 90.2972 103.299 90.4664 103.194L90.8285 102.971C90.9977 102.867 91.2196 102.919 91.3242 103.088L92.3882 104.807ZM97.9425 105.34C98.1177 105.434 98.3361 105.368 98.4301 105.193L99.3864 103.412C99.4805 103.237 99.4146 103.019 99.2394 102.926L98.8642 102.725C98.6889 102.631 98.4706 102.697 98.3766 102.872L97.4203 104.653C97.3262 104.828 97.3921 105.046 97.5673 105.14L97.9425 105.34ZM91.2712 101.365C91.1771 101.54 90.9588 101.606 90.7836 101.512L90.4084 101.311C90.2332 101.218 90.1673 101 90.2614 100.825L91.2177 99.0441C91.3117 98.869 91.53 98.8031 91.7053 98.8968L92.0805 99.0974C92.2557 99.1912 92.3216 99.4091 92.2275 99.5842L91.2712 101.365ZM20.1219 110.151C15.6476 110.151 12.0204 106.531 12.0204 102.066C12.0204 97.6016 15.6476 93.9822 20.1219 93.9822C24.5963 93.9822 28.2235 97.6016 28.2235 102.066C28.2235 106.531 24.5963 110.151 20.1219 110.151ZM20.1216 107.502C17.113 107.502 14.674 105.069 14.674 102.066C14.674 99.0642 17.113 96.6305 20.1216 96.6305C23.1303 96.6305 25.5693 99.0642 25.5693 102.066C25.5693 105.069 23.1303 107.502 20.1216 107.502ZM17.6138 102.066C17.6138 103.449 18.7366 104.569 20.1217 104.569C21.5068 104.569 22.6296 103.449 22.6296 102.066C22.6296 100.684 21.5068 99.5639 20.1217 99.5639C18.7366 99.5639 17.6138 100.684 17.6138 102.066ZM21.1348 97.4948C21.3336 97.4948 21.4947 97.6559 21.4947 97.8546V98.2782C21.4947 98.4769 21.3336 98.6381 21.1348 98.6381H19.1092C18.9104 98.6381 18.7493 98.4769 18.7493 98.2782V97.8546C18.7493 97.6559 18.9104 97.4948 19.1092 97.4948H21.1348ZM21.4947 105.959C21.4947 105.76 21.3336 105.599 21.1348 105.599H19.1092C18.9104 105.599 18.7493 105.76 18.7493 105.959V106.382C18.7493 106.581 18.9104 106.742 19.1092 106.742H21.1348C21.3336 106.742 21.4947 106.581 21.4947 106.382V105.959ZM24.5961 100.548C24.7007 100.717 24.6483 100.939 24.4791 101.043L24.1171 101.266C23.9479 101.37 23.7259 101.318 23.6213 101.149L22.5574 99.4301C22.4528 99.2611 22.5051 99.0396 22.6743 98.9353L23.0364 98.7121C23.2056 98.6079 23.4275 98.6603 23.5321 98.8293L24.5961 100.548ZM17.5695 105.302C17.7387 105.198 17.7911 104.976 17.6865 104.807L16.6225 103.088C16.5179 102.919 16.296 102.867 16.1268 102.971L15.7647 103.194C15.5955 103.299 15.5432 103.52 15.6478 103.689L16.7117 105.408C16.8163 105.577 17.0383 105.629 17.2075 105.525L17.5695 105.302ZM23.7281 105.193C23.6341 105.368 23.4158 105.434 23.2405 105.34L22.8653 105.14C22.6901 105.046 22.6242 104.828 22.7183 104.653L23.6746 102.872C23.7686 102.697 23.987 102.631 24.1622 102.725L24.5374 102.926C24.7126 103.019 24.7785 103.237 24.6844 103.412L23.7281 105.193ZM16.0822 101.512C16.2575 101.606 16.4758 101.54 16.5698 101.365L17.5261 99.5842C17.6202 99.4091 17.5543 99.1912 17.3791 99.0974L17.0039 98.8968C16.8287 98.8031 16.6104 98.869 16.5163 99.0441L15.56 100.825C15.4659 101 15.5318 101.218 15.707 101.311L16.0822 101.512Z" fill="#337AB7"/>
<path fill-rule="evenodd" clip-rule="evenodd" d="M66.3837 0.150696H40.7358L25.9268 1.76734L9.5 21.1346L32.4802 48.2282H37.0484L14 22.1427L35 24.5201L43.5116 48.2282H46.1309L38 24.8505L69 25.4227L63.7388 48.5324C64.6266 48.7541 65.5862 49.0798 66.5872 49.5058L72.427 25.4227L97 21.8124L71.2623 52.0819C72.0805 52.6375 72.8961 53.2496 73.695 53.9166L101.5 21.1346L85.055 1.74587L66.3837 0.150696ZM35 22.1427L39.6657 3.30969L28 4.66355L14.5 19.8863L35 22.1427ZM69 22.7149L38 22.1427L42.5 3.30969H65L69 22.7149ZM83.5 4.66355L68 3.30969L72.427 22.7149L96 19.556L83.5 4.66355Z" fill="black"/>
</svg>
