<svg width="70" height="38" viewBox="0 0 70 38" fill="none" xmlns="http://www.w3.org/2000/svg">
<path fill-rule="evenodd" clip-rule="evenodd" d="M69.0003 30.4703C68.2306 32.3971 67.7564 32.542 67.1218 32.7358L67.1217 32.7358C66.9328 32.7935 66.7297 32.8556 66.5003 32.9702L66.0635 32.9741C66.0696 32.8551 66.0727 32.7353 66.0727 32.6147C66.0727 28.8341 63.0079 25.7693 59.2273 25.7693C55.4466 25.7693 52.3818 28.8341 52.3818 32.6147C52.3818 32.7757 52.3874 32.9355 52.3983 33.0937C41.3435 33.1895 28.6372 33.2974 19.1147 33.3731C19.1421 33.1241 19.1562 32.871 19.1562 32.6147C19.1562 28.8341 16.0914 25.7693 12.3108 25.7693C8.53013 25.7693 5.46532 28.8341 5.46532 32.6147C5.46532 32.9041 5.48327 33.1892 5.51812 33.4692C5.30788 33.4699 5.13461 33.4703 5.00037 33.4703C1.00037 33.4703 0.00037384 31.1369 0.00037384 29.9703L7.62939e-05 8.83356L-7.62939e-06 3.97028C-7.62939e-06 2.10443 1.49999 0.470268 3.49999 0.470277C7.00766 0.470293 11.7134 0.428371 16.5553 0.385235C26.6693 0.295131 37.3774 0.199735 39.0004 0.470236C41.4004 0.870237 43.3337 1.97024 44.0004 2.47024C47.667 5.30357 55.9004 11.6702 59.5004 14.4702C60.3925 15.1641 61.2257 15.7794 61.9999 16.3511C65.1308 18.6633 67.2974 20.2633 68.5003 23.4702C69.1332 25.1577 69.2 29.9703 69.0003 30.4703ZM50.9999 31.9702V30.4702H20.277V31.9702H50.9999ZM42.6677 19.9702H45.4999V20.9702H42.6677V19.9702ZM34.3054 19.9702H36.8552V20.9702H34.3054V19.9702ZM3.08256 22.0861V20.7552L19.2425 20.7315V9.7691H19.6499L19.6403 20.7309L21.6054 20.7281L23.6696 22.0861H19.6392L19.6363 25.3588H19.2425V22.0861H3.08256ZM43.6757 7.63816V7.25534H1.10932V7.63816H43.6757ZM39.3887 9.80165H39.7727V29.3237H39.3887V9.80165ZM50.3947 10.0271L55.3649 13.7344C55.4736 13.7933 55.8049 14.0196 56.2612 14.4541C56.7175 14.8887 57.1303 16.1355 57.1303 16.8056V18.6639C57.1303 19.2614 57.1303 19.8589 56.6279 20.2392C56.2259 20.5433 55.6184 20.5198 55.3649 20.47C51.9654 19.7684 44.9111 18.3054 43.8899 18.0664C42.8687 17.8274 42.5501 16.8714 42.5184 16.4232C42.5093 14.7574 42.4966 11.2792 42.5184 10.6925C42.5455 9.9592 43.1023 9.37529 43.5369 9.37529C43.6303 9.37529 43.7629 9.37655 43.9415 9.37824H43.9415H43.9415L43.9429 9.37826L43.9442 9.37827L43.9456 9.37828L43.9458 9.37829C44.5992 9.3845 45.8647 9.39654 48.0771 9.37529C49.3994 9.3626 50.0312 9.78445 50.3752 10.0141L50.3947 10.0271ZM35.8571 9.44651C36.4094 9.44651 36.8571 9.89422 36.8571 10.4465V16.8499C36.8571 17.4021 36.4094 17.8499 35.8571 17.8499H29.5954C29.0431 17.8499 28.5954 17.4021 28.5954 16.8499V10.4465C28.5954 9.89422 29.0431 9.44651 29.5954 9.44651H35.8571ZM2.04419 9.87076C2.04419 9.5123 1.7536 9.22171 1.39514 9.22171C1.03668 9.22171 0.746094 9.5123 0.746094 9.87076V14.9886C0.746094 15.347 1.03668 15.6376 1.39514 15.6376C1.7536 15.6376 2.04419 15.347 2.04419 14.9886V9.87076ZM1.38497 26.5129C1.74498 26.5129 2.03683 26.8048 2.03683 27.1648V28.8893C2.03683 29.2494 1.74498 29.5412 1.38497 29.5412C1.02496 29.5412 0.733116 29.2494 0.733116 28.8893V27.1648C0.733116 26.8048 1.02496 26.5129 1.38497 26.5129ZM65.3397 23.0086C66.2601 24.0025 67.2779 24.5565 67.6131 24.2461C67.9483 23.9357 67.474 22.8784 66.5536 21.8845C65.6333 20.8907 64.6154 20.3366 64.2802 20.647C63.945 20.9574 64.4194 22.0148 65.3397 23.0086ZM54.1634 32.6181C54.1634 35.4289 56.442 37.7074 59.2527 37.7074C62.0635 37.7074 64.342 35.4289 64.342 32.6181C64.342 29.8074 62.0635 27.5288 59.2527 27.5288C56.442 27.5288 54.1634 29.8074 54.1634 32.6181ZM55.8306 32.6182C55.8306 34.5082 57.3627 36.0403 59.2527 36.0403C61.1427 36.0403 62.6748 34.5082 62.6748 32.6182C62.6748 30.7282 61.1427 29.1961 59.2527 29.1961C57.3627 29.1961 55.8306 30.7282 55.8306 32.6182ZM59.2527 34.1936C58.3826 34.1936 57.6772 33.4883 57.6772 32.6182C57.6772 31.7481 58.3826 31.0428 59.2527 31.0428C60.1228 31.0428 60.8281 31.7481 60.8281 32.6182C60.8281 33.4883 60.1228 34.1936 59.2527 34.1936ZM60.115 30.1001C60.115 29.9014 59.9539 29.7403 59.7551 29.7403H58.7502C58.5515 29.7403 58.3904 29.9014 58.3904 30.1001C58.3904 30.2989 58.5515 30.46 58.7502 30.46H59.7551C59.9539 30.46 60.115 30.2989 60.115 30.1001ZM59.7551 34.8421C59.9539 34.8421 60.115 35.0032 60.115 35.2019C60.115 35.4007 59.9539 35.5618 59.7551 35.5618H58.7502C58.5515 35.5618 58.3904 35.4007 58.3904 35.2019C58.3904 35.0032 58.5515 34.8421 58.7502 34.8421H59.7551ZM61.8762 32.0441C62.0453 31.9397 62.0977 31.7179 61.9933 31.5488L61.4652 30.6939C61.3607 30.5248 61.139 30.4724 60.9699 30.5769C60.8008 30.6813 60.7484 30.9031 60.8528 31.0721L61.3809 31.9271C61.4854 32.0962 61.7071 32.1486 61.8762 32.0441ZM57.6527 34.23C57.7571 34.3991 57.7047 34.6208 57.5356 34.7253C57.3665 34.8297 57.1448 34.7773 57.0403 34.6082L56.5123 33.7533C56.4078 33.5842 56.4602 33.3625 56.6293 33.258C56.7984 33.1536 57.0201 33.206 57.1246 33.3751L57.6527 34.23ZM61.094 34.6159C61.2691 34.7098 61.4872 34.6439 61.5811 34.4687L62.0558 33.583C62.1497 33.4079 62.0838 33.1898 61.9086 33.0959C61.7335 33.002 61.5153 33.0679 61.4215 33.2431L60.9468 34.1288C60.8529 34.3039 60.9188 34.522 61.094 34.6159ZM57.0843 32.0588C56.9904 32.234 56.7723 32.2999 56.5971 32.206C56.4219 32.1121 56.3561 31.894 56.4499 31.7188L56.9246 30.8331C57.0185 30.658 57.2366 30.5921 57.4118 30.686C57.587 30.7798 57.6529 30.998 57.559 31.1731L57.0843 32.0588ZM12.3262 37.7074C9.5155 37.7074 7.23694 35.4289 7.23694 32.6181C7.23694 29.8074 9.5155 27.5288 12.3262 27.5288C15.137 27.5288 17.4155 29.8074 17.4155 32.6181C17.4155 35.4289 15.137 37.7074 12.3262 37.7074ZM12.3262 36.0403C10.4362 36.0403 8.90406 34.5082 8.90406 32.6182C8.90406 30.7282 10.4362 29.1961 12.3262 29.1961C14.2162 29.1961 15.7483 30.7282 15.7483 32.6182C15.7483 34.5082 14.2162 36.0403 12.3262 36.0403ZM10.7507 32.6182C10.7507 33.4883 11.4561 34.1936 12.3262 34.1936C13.1963 34.1936 13.9016 33.4883 13.9016 32.6182C13.9016 31.7481 13.1963 31.0428 12.3262 31.0428C11.4561 31.0428 10.7507 31.7481 10.7507 32.6182ZM12.8286 29.7403C13.0274 29.7403 13.1885 29.9014 13.1885 30.1001C13.1885 30.2989 13.0274 30.46 12.8286 30.46H11.8237C11.625 30.46 11.4639 30.2989 11.4639 30.1001C11.4639 29.9014 11.625 29.7403 11.8237 29.7403H12.8286ZM13.1885 35.2019C13.1885 35.0032 13.0274 34.8421 12.8286 34.8421H11.8237C11.625 34.8421 11.4639 35.0032 11.4639 35.2019C11.4639 35.4007 11.625 35.5618 11.8237 35.5618H12.8286C13.0274 35.5618 13.1885 35.4007 13.1885 35.2019ZM15.0667 31.5488C15.1712 31.7179 15.1188 31.9397 14.9497 32.0441C14.7806 32.1486 14.5589 32.0962 14.4544 31.9271L13.9263 31.0721C13.8219 30.9031 13.8743 30.6813 14.0434 30.5769C14.2125 30.4724 14.4342 30.5248 14.5387 30.6939L15.0667 31.5488ZM10.6091 34.7253C10.7782 34.6208 10.8306 34.3991 10.7262 34.23L10.1981 33.3751C10.0937 33.206 9.87192 33.1536 9.70283 33.258C9.53374 33.3625 9.48133 33.5842 9.58578 33.7533L10.1139 34.6082C10.2183 34.7773 10.4401 34.8297 10.6091 34.7253ZM14.6546 34.4687C14.5607 34.6439 14.3426 34.7098 14.1675 34.6159C13.9923 34.522 13.9264 34.3039 14.0203 34.1288L14.495 33.2431C14.5888 33.0679 14.807 33.002 14.9821 33.0959C15.1573 33.1898 15.2232 33.4079 15.1293 33.583L14.6546 34.4687ZM9.67063 32.206C9.8458 32.2999 10.0639 32.234 10.1578 32.0588L10.6325 31.1731C10.7264 30.998 10.6605 30.7798 10.4853 30.686C10.3101 30.5921 10.092 30.658 9.99813 30.8331L9.52344 31.7188C9.42955 31.894 9.49545 32.1121 9.67063 32.206Z" fill="#FFDF55"/>
</svg>
