<svg width="70" height="38" viewBox="0 0 70 38" fill="none" xmlns="http://www.w3.org/2000/svg">
<path fill-rule="evenodd" clip-rule="evenodd" d="M0.999572 30.6661C1.76926 32.5929 2.24345 32.7378 2.87814 32.9316L2.87817 32.9316C3.06709 32.9893 3.27024 33.0514 3.49963 33.166L3.93645 33.1699C3.9303 33.0509 3.92718 32.9311 3.92718 32.8105C3.92718 29.0299 6.992 25.9651 10.7727 25.9651C14.5533 25.9651 17.6181 29.0299 17.6181 32.8105C17.6181 32.9715 17.6126 33.1312 17.6016 33.2895C28.6565 33.3853 41.3628 33.4932 50.8853 33.5689C50.8578 33.3199 50.8437 33.0668 50.8437 32.8105C50.8437 29.0299 53.9086 25.9651 57.6892 25.9651C61.4699 25.9651 64.5347 29.0299 64.5347 32.8105C64.5347 33.0999 64.5167 33.385 64.4819 33.665C64.6921 33.6657 64.8654 33.6661 64.9996 33.6661C68.9996 33.6661 69.9996 31.3327 69.9996 30.1661L69.9999 9.02937L70 4.16609C70 2.30024 68.5 0.666076 66.5 0.666085C62.9923 0.666101 58.2866 0.624179 53.4446 0.581043C43.3306 0.490939 32.6226 0.395543 30.9996 0.666044C28.5996 1.06604 26.6662 2.16604 25.9996 2.66604C22.3329 5.49938 14.0995 11.866 10.4995 14.666C9.6076 15.3598 8.77461 15.9749 8.00056 16.5465L8.00029 16.5467L8.00013 16.5469L8.00007 16.5469L8.00001 16.547C4.86908 18.8591 2.70245 20.4591 1.49963 23.666C0.866733 25.3535 0.799846 30.1661 0.999572 30.6661ZM19.0001 32.166V30.666H49.723V32.166H19.0001ZM27.3323 20.166H24.5V21.166H27.3323V20.166ZM35.6946 20.166H33.1448V21.166H35.6946V20.166ZM66.9175 22.2819V20.951L50.7575 20.9273V9.9649H50.3501L50.3597 20.9268L48.3946 20.9239L46.3304 22.2819H50.3609L50.3637 25.5546H50.7575V22.2819H66.9175ZM26.3243 7.83396V7.45115H68.8908V7.83396H26.3243ZM30.6113 9.99746H30.2273V29.5195H30.6113V9.99746ZM19.6053 10.223L14.6351 13.9303C14.5264 13.9891 14.195 14.2154 13.7387 14.6499C13.2825 15.0845 12.8696 16.3313 12.8696 17.0014V18.8597C12.8696 19.4572 12.8697 20.0547 13.3721 20.435C13.7741 20.7392 14.3816 20.7156 14.6351 20.6658C18.0346 19.9642 25.0888 18.5012 26.1101 18.2622C27.1313 18.0232 27.4499 17.0672 27.4816 16.619C27.4907 14.9532 27.5034 11.475 27.4816 10.8883C27.4545 10.155 26.8977 9.5711 26.4631 9.5711C26.3697 9.5711 26.2371 9.57236 26.0585 9.57405H26.0585H26.0585L26.0571 9.57406L26.0558 9.57408L26.0544 9.57409L26.0542 9.57409C25.4008 9.58031 24.1353 9.59235 21.9229 9.5711C20.6006 9.5584 19.9688 9.98026 19.6248 10.2099L19.6053 10.223ZM34.1428 9.64231C33.5905 9.64231 33.1428 10.09 33.1428 10.6423V17.0457C33.1428 17.598 33.5905 18.0457 34.1428 18.0457H40.4046C40.9568 18.0457 41.4046 17.598 41.4046 17.0457V10.6423C41.4046 10.09 40.9568 9.64231 40.4046 9.64231H34.1428ZM67.9558 10.0665C67.9558 9.70808 68.2464 9.41749 68.6049 9.41749C68.9633 9.41749 69.2539 9.70808 69.2539 10.0665V15.1843C69.2539 15.5428 68.9633 15.8334 68.6049 15.8334C68.2464 15.8334 67.9558 15.5428 67.9558 15.1843V10.0665ZM68.615 26.7087C68.255 26.7087 67.9632 27.0006 67.9632 27.3606V29.0852C67.9632 29.4452 68.255 29.737 68.615 29.737C68.975 29.737 69.2669 29.4452 69.2669 29.0852V27.3606C69.2669 27.0006 68.975 26.7087 68.615 26.7087ZM4.66022 23.2044C3.73986 24.1983 2.72202 24.7523 2.38681 24.4419C2.05161 24.1315 2.52596 23.0742 3.44632 22.0803C4.36668 21.0864 5.38452 20.5324 5.71973 20.8428C6.05494 21.1532 5.58058 22.2105 4.66022 23.2044ZM15.8365 32.8139C15.8365 35.6246 13.5579 37.9032 10.7472 37.9032C7.93643 37.9032 5.65787 35.6246 5.65787 32.8139C5.65787 30.0032 7.93643 27.7246 10.7472 27.7246C13.5579 27.7246 15.8365 30.0032 15.8365 32.8139ZM14.1693 32.814C14.1693 34.7039 12.6372 36.2361 10.7472 36.2361C8.85721 36.2361 7.32507 34.7039 7.32507 32.814C7.32507 30.924 8.85721 29.3918 10.7472 29.3918C12.6372 29.3918 14.1693 30.924 14.1693 32.814ZM10.7472 34.3894C11.6173 34.3894 12.3226 33.6841 12.3226 32.814C12.3226 31.9439 11.6173 31.2385 10.7472 31.2385C9.87711 31.2385 9.17176 31.9439 9.17176 32.814C9.17176 33.6841 9.87711 34.3894 10.7472 34.3894ZM9.88494 30.2959C9.88494 30.0972 10.0461 29.936 10.2448 29.936H11.2497C11.4484 29.936 11.6096 30.0972 11.6096 30.2959C11.6096 30.4946 11.4484 30.6558 11.2497 30.6558H10.2448C10.0461 30.6558 9.88494 30.4946 9.88494 30.2959ZM10.2448 35.0378C10.0461 35.0378 9.88494 35.199 9.88494 35.3977C9.88494 35.5965 10.0461 35.7576 10.2448 35.7576H11.2497C11.4484 35.7576 11.6096 35.5965 11.6096 35.3977C11.6096 35.199 11.4484 35.0378 11.2497 35.0378H10.2448ZM8.12369 32.2399C7.9546 32.1355 7.9022 31.9137 8.00664 31.7446L8.53473 30.8897C8.63918 30.7206 8.86092 30.6682 9.03001 30.7726C9.1991 30.8771 9.25151 31.0988 9.14706 31.2679L8.61897 32.1228C8.51453 32.2919 8.29278 32.3443 8.12369 32.2399ZM12.3473 34.4258C12.2428 34.5949 12.2952 34.8166 12.4643 34.9211C12.6334 35.0255 12.8551 34.9731 12.9596 34.804L13.4877 33.9491C13.5921 33.78 13.5397 33.5582 13.3706 33.4538C13.2015 33.3493 12.9798 33.4017 12.8753 33.5708L12.3473 34.4258ZM8.90597 34.8117C8.7308 34.9056 8.51268 34.8397 8.4188 34.6645L7.94411 33.7788C7.85022 33.6036 7.91612 33.3855 8.09129 33.2916C8.26647 33.1978 8.48458 33.2636 8.57847 33.4388L9.05316 34.3245C9.14705 34.4997 9.08115 34.7178 8.90597 34.8117ZM12.9156 32.2546C13.0095 32.4298 13.2276 32.4957 13.4028 32.4018C13.578 32.3079 13.6439 32.0898 13.55 31.9146L13.0753 31.0289C12.9814 30.8537 12.7633 30.7878 12.5881 30.8817C12.413 30.9756 12.3471 31.1937 12.4409 31.3689L12.9156 32.2546ZM57.6738 37.9032C60.4845 37.9032 62.7631 35.6246 62.7631 32.8139C62.7631 30.0032 60.4845 27.7246 57.6738 27.7246C54.863 27.7246 52.5845 30.0032 52.5845 32.8139C52.5845 35.6246 54.863 37.9032 57.6738 37.9032ZM57.6739 36.2361C59.5639 36.2361 61.096 34.7039 61.096 32.814C61.096 30.924 59.5639 29.3918 57.6739 29.3918C55.7839 29.3918 54.2517 30.924 54.2517 32.814C54.2517 34.7039 55.7839 36.2361 57.6739 36.2361ZM59.2493 32.814C59.2493 33.6841 58.544 34.3894 57.6739 34.3894C56.8038 34.3894 56.0984 33.6841 56.0984 32.814C56.0984 31.9439 56.8038 31.2385 57.6739 31.2385C58.544 31.2385 59.2493 31.9439 59.2493 32.814ZM57.1714 29.936C56.9727 29.936 56.8116 30.0972 56.8116 30.2959C56.8116 30.4946 56.9727 30.6558 57.1714 30.6558H58.1763C58.375 30.6558 58.5362 30.4946 58.5362 30.2959C58.5362 30.0972 58.375 29.936 58.1763 29.936H57.1714ZM56.8116 35.3977C56.8116 35.199 56.9727 35.0378 57.1714 35.0378H58.1763C58.375 35.0378 58.5362 35.199 58.5362 35.3977C58.5362 35.5965 58.375 35.7576 58.1763 35.7576H57.1714C56.9727 35.7576 56.8116 35.5965 56.8116 35.3977ZM54.9333 31.7446C54.8289 31.9137 54.8813 32.1355 55.0504 32.2399C55.2194 32.3443 55.4412 32.2919 55.5456 32.1228L56.0737 31.2679C56.1782 31.0988 56.1258 30.8771 55.9567 30.7726C55.7876 30.6682 55.5658 30.7206 55.4614 30.8897L54.9333 31.7446ZM59.3909 34.9211C59.2218 34.8166 59.1694 34.5949 59.2739 34.4258L59.802 33.5708C59.9064 33.4017 60.1281 33.3493 60.2972 33.4538C60.4663 33.5582 60.5187 33.78 60.4143 33.9491L59.8862 34.804C59.7817 34.9731 59.56 35.0255 59.3909 34.9211ZM55.3454 34.6645C55.4393 34.8397 55.6574 34.9056 55.8326 34.8117C56.0078 34.7178 56.0737 34.4997 55.9798 34.3245L55.5051 33.4388C55.4112 33.2636 55.1931 33.1978 55.0179 33.2916C54.8427 33.3855 54.7768 33.6036 54.8707 33.7788L55.3454 34.6645ZM60.3294 32.4018C60.1542 32.4957 59.9361 32.4298 59.8422 32.2546L59.3676 31.3689C59.2737 31.1937 59.3396 30.9756 59.5147 30.8817C59.6899 30.7878 59.908 30.8537 60.0019 31.0289L60.4766 31.9146C60.5705 32.0898 60.5046 32.3079 60.3294 32.4018Z" fill="#23527C"/>
</svg>
