<svg width="70" height="38" viewBox="0 0 70 38" fill="none" xmlns="http://www.w3.org/2000/svg">
<path fill-rule="evenodd" clip-rule="evenodd" d="M0.999564 30.4703C1.76925 32.3971 2.24344 32.542 2.87813 32.7358L2.87816 32.7358C3.06709 32.7935 3.27023 32.8556 3.49962 32.9702L3.93645 32.9741C3.93029 32.8551 3.92717 32.7353 3.92717 32.6147C3.92717 28.8341 6.992 25.7693 10.7726 25.7693C14.5533 25.7693 17.6181 28.8341 17.6181 32.6147C17.6181 32.7757 17.6126 32.9355 17.6016 33.0937C28.6565 33.1895 41.3628 33.2974 50.8853 33.3731C50.8578 33.1241 50.8437 32.871 50.8437 32.6147C50.8437 28.8341 53.9086 25.7693 57.6892 25.7693C61.4698 25.7693 64.5347 28.8341 64.5347 32.6147C64.5347 32.9041 64.5167 33.1892 64.4819 33.4692C64.6921 33.4699 64.8654 33.4703 64.9996 33.4703C68.9996 33.4703 69.9996 31.1369 69.9996 29.9703L69.9999 8.83356L70 3.97028C70 2.10443 68.5 0.470268 66.5 0.470277C62.9923 0.470293 58.2866 0.428371 53.4446 0.385235C43.3306 0.295131 32.6226 0.199735 30.9996 0.470236C28.5996 0.870237 26.6662 1.97024 25.9996 2.47024C22.3329 5.30357 14.0995 11.6702 10.4995 14.4702C9.60738 15.1641 8.77421 15.7794 8 16.3511C4.86907 18.6633 2.70245 20.2633 1.49962 23.4702C0.866725 25.1577 0.799838 29.9703 0.999564 30.4703ZM19 31.9702V30.4702H49.723V31.9702H19ZM27.3323 19.9702H24.5V20.9702H27.3323V19.9702ZM35.6946 19.9702H33.1448V20.9702H35.6946V19.9702ZM66.9175 22.0861V20.7552L50.7575 20.7315V9.7691H50.3501L50.3597 20.7309L48.3946 20.7281L46.3304 22.0861H50.3609L50.3637 25.3588H50.7575V22.0861H66.9175ZM26.3243 7.63816V7.25534H68.8907V7.63816H26.3243ZM30.6113 9.80165H30.2273V29.3237H30.6113V9.80165ZM19.6053 10.0271L14.6351 13.7344C14.5264 13.7933 14.195 14.0196 13.7387 14.4541C13.2824 14.8887 12.8696 16.1355 12.8696 16.8056V18.6639C12.8696 19.2614 12.8696 19.8589 13.3721 20.2392C13.7741 20.5433 14.3816 20.5198 14.6351 20.47C18.0345 19.7684 25.0888 18.3054 26.11 18.0664C27.1313 17.8274 27.4499 16.8714 27.4816 16.4232C27.4907 14.7574 27.5033 11.2792 27.4816 10.6925C27.4545 9.9592 26.8977 9.37529 26.4631 9.37529C26.3697 9.37529 26.2371 9.37655 26.0585 9.37824H26.0585H26.0585L26.0571 9.37826L26.0558 9.37827L26.0544 9.37828L26.0542 9.37829C25.4008 9.3845 24.1353 9.39654 21.9229 9.37529C20.6006 9.3626 19.9688 9.78445 19.6248 10.0141L19.6053 10.0271ZM34.1428 9.44651C33.5905 9.44651 33.1428 9.89422 33.1428 10.4465V16.8499C33.1428 17.4021 33.5905 17.8499 34.1428 17.8499H40.4046C40.9568 17.8499 41.4046 17.4021 41.4046 16.8499V10.4465C41.4046 9.89422 40.9568 9.44651 40.4046 9.44651H34.1428ZM67.9558 9.87076C67.9558 9.5123 68.2464 9.22171 68.6049 9.22171C68.9633 9.22171 69.2539 9.5123 69.2539 9.87076V14.9886C69.2539 15.347 68.9633 15.6376 68.6049 15.6376C68.2464 15.6376 67.9558 15.347 67.9558 14.9886V9.87076ZM68.615 26.5129C68.255 26.5129 67.9632 26.8048 67.9632 27.1648V28.8893C67.9632 29.2494 68.255 29.5412 68.615 29.5412C68.975 29.5412 69.2669 29.2494 69.2669 28.8893V27.1648C69.2669 26.8048 68.975 26.5129 68.615 26.5129ZM4.66019 23.0086C3.73984 24.0025 2.722 24.5565 2.38679 24.2461C2.05158 23.9357 2.52594 22.8784 3.4463 21.8845C4.36666 20.8907 5.3845 20.3366 5.7197 20.647C6.05491 20.9574 5.58055 22.0148 4.66019 23.0086ZM15.8365 32.6181C15.8365 35.4289 13.5579 37.7074 10.7472 37.7074C7.93641 37.7074 5.65785 35.4289 5.65785 32.6181C5.65785 29.8074 7.93641 27.5288 10.7472 27.5288C13.5579 27.5288 15.8365 29.8074 15.8365 32.6181ZM14.1693 32.6182C14.1693 34.5082 12.6372 36.0403 10.7472 36.0403C8.85719 36.0403 7.32505 34.5082 7.32505 32.6182C7.32505 30.7282 8.85719 29.1961 10.7472 29.1961C12.6372 29.1961 14.1693 30.7282 14.1693 32.6182ZM10.7472 34.1936C11.6173 34.1936 12.3226 33.4883 12.3226 32.6182C12.3226 31.7481 11.6173 31.0428 10.7472 31.0428C9.8771 31.0428 9.17175 31.7481 9.17175 32.6182C9.17175 33.4883 9.8771 34.1936 10.7472 34.1936ZM9.88493 30.1001C9.88493 29.9014 10.046 29.7403 10.2448 29.7403H11.2497C11.4484 29.7403 11.6095 29.9014 11.6095 30.1001C11.6095 30.2989 11.4484 30.46 11.2497 30.46H10.2448C10.046 30.46 9.88493 30.2989 9.88493 30.1001ZM10.2448 34.8421C10.046 34.8421 9.88493 35.0032 9.88493 35.2019C9.88493 35.4007 10.046 35.5618 10.2448 35.5618H11.2497C11.4484 35.5618 11.6095 35.4007 11.6095 35.2019C11.6095 35.0032 11.4484 34.8421 11.2497 34.8421H10.2448ZM8.12368 32.0441C7.95459 31.9397 7.90218 31.7179 8.00663 31.5488L8.53471 30.6939C8.63916 30.5248 8.8609 30.4724 9.02999 30.5769C9.19908 30.6813 9.25149 30.9031 9.14704 31.0721L8.61896 31.9271C8.51451 32.0962 8.29277 32.1486 8.12368 32.0441ZM12.3472 34.23C12.2428 34.3991 12.2952 34.6208 12.4643 34.7253C12.6334 34.8297 12.8551 34.7773 12.9596 34.6082L13.4877 33.7533C13.5921 33.5842 13.5397 33.3625 13.3706 33.258C13.2015 33.1536 12.9798 33.206 12.8753 33.3751L12.3472 34.23ZM8.90596 34.6159C8.73078 34.7098 8.51267 34.6439 8.41878 34.4687L7.94409 33.583C7.8502 33.4079 7.9161 33.1898 8.09128 33.0959C8.26645 33.002 8.48457 33.0679 8.57845 33.2431L9.05314 34.1288C9.14703 34.3039 9.08113 34.522 8.90596 34.6159ZM12.9156 32.0588C13.0095 32.234 13.2276 32.2999 13.4028 32.206C13.578 32.1121 13.6439 31.894 13.55 31.7188L13.0753 30.8331C12.9814 30.658 12.7633 30.5921 12.5881 30.686C12.4129 30.7798 12.347 30.998 12.4409 31.1731L12.9156 32.0588ZM57.6738 37.7074C60.4845 37.7074 62.7631 35.4289 62.7631 32.6181C62.7631 29.8074 60.4845 27.5288 57.6738 27.5288C54.863 27.5288 52.5845 29.8074 52.5845 32.6181C52.5845 35.4289 54.863 37.7074 57.6738 37.7074ZM57.6738 36.0403C59.5638 36.0403 61.096 34.5082 61.096 32.6182C61.096 30.7282 59.5638 29.1961 57.6738 29.1961C55.7839 29.1961 54.2517 30.7282 54.2517 32.6182C54.2517 34.5082 55.7839 36.0403 57.6738 36.0403ZM59.2493 32.6182C59.2493 33.4883 58.5439 34.1936 57.6739 34.1936C56.8038 34.1936 56.0984 33.4883 56.0984 32.6182C56.0984 31.7481 56.8038 31.0428 57.6739 31.0428C58.5439 31.0428 59.2493 31.7481 59.2493 32.6182ZM57.1714 29.7403C56.9727 29.7403 56.8115 29.9014 56.8115 30.1001C56.8115 30.2989 56.9727 30.46 57.1714 30.46H58.1763C58.375 30.46 58.5361 30.2989 58.5361 30.1001C58.5361 29.9014 58.375 29.7403 58.1763 29.7403H57.1714ZM56.8115 35.2019C56.8115 35.0032 56.9727 34.8421 57.1714 34.8421H58.1763C58.375 34.8421 58.5361 35.0032 58.5361 35.2019C58.5361 35.4007 58.375 35.5618 58.1763 35.5618H57.1714C56.9727 35.5618 56.8115 35.4007 56.8115 35.2019ZM54.9333 31.5488C54.8288 31.7179 54.8813 31.9397 55.0503 32.0441C55.2194 32.1486 55.4412 32.0962 55.5456 31.9271L56.0737 31.0721C56.1782 30.9031 56.1258 30.6813 55.9567 30.5769C55.7876 30.4724 55.5658 30.5248 55.4614 30.6939L54.9333 31.5488ZM59.3909 34.7253C59.2218 34.6208 59.1694 34.3991 59.2738 34.23L59.8019 33.3751C59.9064 33.206 60.1281 33.1536 60.2972 33.258C60.4663 33.3625 60.5187 33.5842 60.4143 33.7533L59.8862 34.6082C59.7817 34.7773 59.56 34.8297 59.3909 34.7253ZM55.3454 34.4687C55.4393 34.6439 55.6574 34.7098 55.8326 34.6159C56.0077 34.522 56.0736 34.3039 55.9798 34.1288L55.5051 33.2431C55.4112 33.0679 55.1931 33.002 55.0179 33.0959C54.8427 33.1898 54.7768 33.4079 54.8707 33.583L55.3454 34.4687ZM60.3294 32.206C60.1542 32.2999 59.9361 32.234 59.8422 32.0588L59.3675 31.1731C59.2737 30.998 59.3396 30.7798 59.5147 30.686C59.6899 30.5921 59.908 30.658 60.0019 30.8331L60.4766 31.7188C60.5705 31.894 60.5046 32.1121 60.3294 32.206Z" fill="#FFDF55"/>
</svg>
