<svg width="239" height="149" viewBox="0 0 239 149" fill="none" xmlns="http://www.w3.org/2000/svg">
<path fill-rule="evenodd" clip-rule="evenodd" d="M10.2585 95.7439C12.7027 101.845 14.2084 102.303 16.2239 102.917L16.2239 102.917C16.8239 103.1 17.469 103.296 18.1974 103.659L19.5843 103.672C19.5648 103.295 19.5549 102.915 19.5549 102.534C19.5549 90.5633 29.2871 80.8595 41.2925 80.8595C53.2979 80.8595 63.0301 90.5633 63.0301 102.534C63.0301 103.043 63.0125 103.549 62.9778 104.05C98.0823 104.354 138.431 104.695 168.669 104.935C168.582 104.146 168.538 103.345 168.538 102.534C168.538 90.5633 178.27 80.8595 190.275 80.8595C202.281 80.8595 212.013 90.5633 212.013 102.534C212.013 103.45 211.956 104.353 211.845 105.239C212.513 105.241 213.063 105.243 213.489 105.243C226.191 105.243 229.367 97.8547 229.367 94.1608C229.367 75.8148 229.367 45.6307 229.368 27.238L229.368 11.8399C229.368 5.93229 224.605 0.758221 218.254 0.758251C207.115 0.758303 192.172 0.625566 176.797 0.48899C144.68 0.203704 110.677 -0.0983385 105.523 0.758122C97.9017 2.0246 91.7624 5.50741 89.6454 7.0905C78.002 16.0614 51.8572 36.2195 40.4254 45.0848C37.5925 47.2818 34.9468 49.2298 32.4883 51.0401L32.4883 51.0401C22.5461 58.3607 15.666 63.4267 11.8464 73.5805C9.8367 78.9232 9.62431 94.1608 10.2585 95.7439ZM67.4183 100.493V95.7439H164.978V100.493H67.4183ZM93.8771 62.499H84.8832V65.6652H93.8771V62.499ZM120.431 62.499H112.334V65.6652H120.431V62.499ZM219.579 69.1982V64.9845L168.263 64.9095V30.2002H166.97L167 64.9076L160.76 64.8985L154.205 69.1982H167.004L167.013 79.5601H168.263V69.1982H219.579ZM90.6761 23.4532V22.2412H225.845V23.4532H90.6761ZM104.29 30.3033H103.07V92.1137H104.29V30.3033ZM69.3401 31.0172L53.5572 42.7552C53.2122 42.9415 52.1599 43.658 50.711 45.0339C49.2621 46.4098 47.9512 50.3574 47.9512 52.479V58.3628C47.9512 60.2547 47.9512 62.1465 49.5468 63.3504C50.8232 64.3135 52.7523 64.239 53.5572 64.0813C64.3523 61.8599 86.753 57.2277 89.9958 56.471C93.2386 55.7142 94.2506 52.6873 94.3512 51.2684C94.3799 45.9942 94.4202 34.9813 94.3512 33.1239C94.2649 30.8021 92.4969 28.9533 91.117 28.9533C90.8179 28.9533 90.3926 28.9574 89.8185 28.9628C87.7435 28.9825 83.7251 29.0206 76.6995 28.9533C72.5007 28.9131 70.4943 30.2488 69.402 30.976L69.3401 31.0172ZM113.328 29.1791C112.776 29.1791 112.328 29.6268 112.328 30.1791V54.7857C112.328 55.338 112.776 55.7857 113.328 55.7857H137.563C138.116 55.7857 138.563 55.338 138.563 54.7857V30.1791C138.563 29.6268 138.116 29.1791 137.563 29.1791H113.328ZM222.876 29.1163C222.876 28.7578 223.167 28.4672 223.525 28.4672H226.349C226.708 28.4672 226.999 28.7578 226.999 29.1163V48.1321C226.999 48.4906 226.708 48.7812 226.349 48.7812H223.525C223.167 48.7812 222.876 48.4906 222.876 48.1321V29.1163ZM223.551 83.2146C223.191 83.2146 222.9 83.5064 222.9 83.8664V92.1508C222.9 92.5108 223.191 92.8027 223.551 92.8027H226.388C226.748 92.8027 227.039 92.5108 227.039 92.1508V83.8664C227.039 83.5064 226.748 83.2146 226.388 83.2146H223.551ZM21.8825 72.1192C18.9599 75.2659 15.7278 77.0202 14.6633 76.0373C13.5989 75.0545 15.1052 71.7068 18.0278 68.56C20.9503 65.4133 24.1825 63.659 25.2469 64.6419C26.3114 65.6247 24.805 68.9724 21.8825 72.1192ZM57.3727 102.545C57.3727 111.444 50.1372 118.658 41.2117 118.658C32.2863 118.658 25.0507 111.444 25.0507 102.545C25.0507 93.6452 32.2863 86.4308 41.2117 86.4308C50.1372 86.4308 57.3727 93.6452 57.3727 102.545ZM52.0787 102.545C52.0787 108.529 47.2134 113.38 41.2118 113.38C35.2102 113.38 30.3449 108.529 30.3449 102.545C30.3449 96.5605 35.2102 91.7094 41.2118 91.7094C47.2134 91.7094 52.0787 96.5605 52.0787 102.545ZM41.2118 107.533C43.9748 107.533 46.2146 105.299 46.2146 102.545C46.2146 99.7896 43.9748 97.5564 41.2118 97.5564C38.4489 97.5564 36.2091 99.7896 36.2091 102.545C36.2091 105.299 38.4489 107.533 41.2118 107.533ZM38.4736 93.7921C38.4736 93.5934 38.6347 93.4322 38.8335 93.4322H43.5902C43.789 93.4322 43.9501 93.5934 43.9501 93.7921V95.3512C43.9501 95.5499 43.789 95.711 43.5902 95.711H38.8335C38.6347 95.711 38.4736 95.5499 38.4736 95.3512V93.7921ZM38.8335 109.586C38.6347 109.586 38.4736 109.747 38.4736 109.946V111.505C38.4736 111.703 38.6347 111.865 38.8335 111.865H43.5902C43.789 111.865 43.9501 111.703 43.9501 111.505V109.946C43.9501 109.747 43.789 109.586 43.5902 109.586H38.8335ZM32.215 100.317C32.0458 100.212 31.9934 99.991 32.0981 99.822L34.5971 95.7882C34.7017 95.6193 34.9238 95.5668 35.093 95.671L36.4246 96.4911C36.5938 96.5954 36.6462 96.8168 36.5415 96.9858L34.0426 101.02C33.9379 101.189 33.7159 101.241 33.5466 101.137L32.215 100.317ZM45.8815 108.311C45.7769 108.48 45.8292 108.701 45.9984 108.806L47.33 109.626C47.4993 109.73 47.7213 109.678 47.826 109.509L50.3249 105.475C50.4296 105.306 50.3773 105.084 50.208 104.98L48.8764 104.16C48.7072 104.056 48.4851 104.108 48.3805 104.277L45.8815 108.311ZM34.675 109.239C34.4997 109.332 34.2813 109.266 34.1872 109.091L31.941 104.913C31.8469 104.737 31.9127 104.52 32.088 104.426L33.4676 103.689C33.6429 103.595 33.8613 103.661 33.9554 103.836L36.2016 108.015C36.2957 108.19 36.2299 108.408 36.0546 108.501L34.675 109.239ZM48.467 101.461C48.5611 101.636 48.7794 101.702 48.9547 101.608L50.3344 100.871C50.5096 100.777 50.5755 100.559 50.4814 100.384L48.2351 96.2054C48.141 96.0304 47.9226 95.9644 47.7474 96.0581L46.3677 96.7953C46.1924 96.889 46.1266 97.1068 46.2207 97.2819L48.467 101.461ZM190.226 118.658C199.152 118.658 206.387 111.444 206.387 102.545C206.387 93.6452 199.152 86.4308 190.226 86.4308C181.301 86.4308 174.065 93.6452 174.065 102.545C174.065 111.444 181.301 118.658 190.226 118.658ZM190.226 113.38C196.228 113.38 201.093 108.529 201.093 102.545C201.093 96.5605 196.228 91.7094 190.226 91.7094C184.225 91.7094 179.359 96.5605 179.359 102.545C179.359 108.529 184.225 113.38 190.226 113.38ZM195.229 102.545C195.229 105.299 192.989 107.533 190.226 107.533C187.463 107.533 185.223 105.299 185.223 102.545C185.223 99.7896 187.463 97.5564 190.226 97.5564C192.989 97.5564 195.229 99.7896 195.229 102.545ZM187.848 93.4322C187.649 93.4322 187.488 93.5934 187.488 93.7921V95.3512C187.488 95.5499 187.649 95.711 187.848 95.711H192.605C192.803 95.711 192.964 95.5499 192.964 95.3512V93.7921C192.964 93.5934 192.803 93.4322 192.605 93.4322H187.848ZM187.488 109.946C187.488 109.747 187.649 109.586 187.848 109.586H192.605C192.803 109.586 192.964 109.747 192.964 109.946V111.505C192.964 111.703 192.803 111.865 192.605 111.865H187.848C187.649 111.865 187.488 111.703 187.488 111.505V109.946ZM181.113 99.822C181.008 99.991 181.06 100.212 181.23 100.317L182.561 101.137C182.73 101.241 182.952 101.189 183.057 101.02L185.556 96.9858C185.661 96.8168 185.608 96.5954 185.439 96.4911L184.108 95.671C183.938 95.5668 183.716 95.6193 183.612 95.7882L181.113 99.822ZM195.013 108.806C194.844 108.701 194.791 108.48 194.896 108.311L197.395 104.277C197.5 104.108 197.722 104.056 197.891 104.16L199.223 104.98C199.392 105.084 199.444 105.306 199.339 105.475L196.84 109.509C196.736 109.678 196.514 109.73 196.345 109.626L195.013 108.806ZM183.202 109.091C183.296 109.266 183.514 109.332 183.69 109.239L185.069 108.501C185.245 108.408 185.31 108.19 185.216 108.015L182.97 103.836C182.876 103.661 182.658 103.595 182.482 103.689L181.103 104.426C180.927 104.52 180.862 104.737 180.956 104.913L183.202 109.091ZM197.969 101.608C197.794 101.702 197.575 101.636 197.481 101.461L195.235 97.2819C195.141 97.1068 195.207 96.889 195.382 96.7953L196.762 96.0581C196.937 95.9644 197.155 96.0304 197.25 96.2054L199.496 100.384C199.59 100.559 199.524 100.777 199.349 100.871L197.969 101.608ZM238.5 138.988C238.164 139.533 237.757 140.05 237.277 140.537C236.808 141.015 236.271 141.426 235.667 141.771C235.024 142.134 234.372 142.406 233.71 142.588C233.058 142.779 232.306 142.875 231.452 142.875C230.033 142.875 228.806 142.674 227.77 142.273C226.744 141.871 225.896 141.331 225.225 140.652C224.553 139.973 224.05 139.175 223.714 138.257C223.388 137.33 223.225 136.326 223.225 135.246C223.225 134.27 223.403 133.338 223.758 132.449C224.122 131.55 224.635 130.752 225.297 130.054C225.949 129.375 226.768 128.826 227.756 128.405C228.753 127.984 229.865 127.774 231.093 127.774C232.435 127.774 233.538 127.937 234.401 128.262C235.264 128.587 235.978 129.036 236.544 129.61C237.09 130.155 237.488 130.8 237.738 131.546C237.987 132.282 238.112 133.056 238.112 133.869V134.801H228.389C228.389 136.761 228.768 138.252 229.525 139.275C230.283 140.298 231.486 140.81 233.135 140.81C234.036 140.81 234.847 140.566 235.566 140.078C236.285 139.581 236.899 138.955 237.407 138.2L238.5 138.988ZM233.006 133.539C233.006 132.965 232.977 132.377 232.919 131.775C232.862 131.173 232.761 130.68 232.617 130.298C232.454 129.849 232.229 129.509 231.941 129.28C231.663 129.05 231.309 128.936 230.877 128.936C230.139 128.936 229.549 129.308 229.108 130.054C228.667 130.8 228.427 131.981 228.389 133.596L233.006 133.539ZM215.013 142.531L222.104 142.115V141.068C221.854 141.058 221.533 141.03 221.14 140.982C220.756 140.934 220.464 140.858 220.263 140.752C219.994 140.609 219.798 140.413 219.673 140.164C219.558 139.916 219.5 139.61 219.5 139.247V120.446L219.285 120.216L211.518 120.589V121.636C211.968 121.674 212.414 121.741 212.855 121.837C213.306 121.923 213.68 122.071 213.977 122.282C214.217 122.454 214.409 122.697 214.553 123.013C214.696 123.319 214.768 123.649 214.768 124.002V128.692C214.356 128.453 213.805 128.247 213.114 128.075C212.424 127.894 211.686 127.803 210.899 127.803C208.905 127.803 207.203 128.525 205.793 129.968C204.393 131.412 203.694 133.142 203.694 135.16C203.694 137.435 204.322 139.29 205.578 140.724C206.834 142.158 208.43 142.875 210.367 142.875C211.182 142.875 211.988 142.688 212.783 142.316C213.589 141.933 214.227 141.489 214.696 140.982L214.797 141.011V142.33L215.013 142.531ZM214.768 131.46V139.562C214.442 139.935 214.088 140.236 213.704 140.466C213.32 140.685 212.836 140.795 212.251 140.795C211.638 140.795 211.11 140.652 210.669 140.365C210.238 140.078 209.883 139.682 209.605 139.175C209.327 138.668 209.13 138.109 209.015 137.497C208.91 136.876 208.857 136.178 208.857 135.403C208.857 133.434 209.164 131.909 209.777 130.829C210.391 129.748 211.177 129.208 212.136 129.208C212.539 129.208 212.899 129.285 213.215 129.438C213.541 129.59 213.8 129.767 213.992 129.968C214.203 130.207 214.366 130.461 214.481 130.728C214.605 130.996 214.701 131.24 214.768 131.46ZM200.688 140.035C200.688 140.791 200.405 141.446 199.839 142C199.283 142.555 198.621 142.832 197.854 142.832C197.077 142.832 196.406 142.559 195.84 142.014C195.284 141.46 195.006 140.8 195.006 140.035C195.006 139.271 195.284 138.611 195.84 138.056C196.406 137.492 197.077 137.21 197.854 137.21C198.621 137.21 199.283 137.492 199.839 138.056C200.405 138.62 200.688 139.28 200.688 140.035ZM183.831 142.416H192.489V141.369C192.202 141.34 191.943 141.293 191.713 141.226C191.492 141.159 191.305 141.092 191.152 141.025C190.864 140.901 190.667 140.733 190.562 140.523C190.457 140.313 190.404 140.031 190.404 139.677V132.65C190.404 131.187 190.011 130.016 189.224 129.136C188.448 128.247 187.278 127.803 185.715 127.803C185.063 127.803 184.449 127.884 183.874 128.046C183.299 128.209 182.834 128.405 182.479 128.634C182.153 128.845 181.798 129.117 181.415 129.452C181.031 129.786 180.705 130.073 180.436 130.312H180.379V128.233L180.163 128.018L173.303 128.391V129.438C173.619 129.466 173.907 129.519 174.166 129.595C174.434 129.672 174.655 129.767 174.827 129.882C175.076 130.064 175.278 130.298 175.431 130.585C175.585 130.872 175.661 131.163 175.661 131.46V139.806C175.661 140.16 175.604 140.446 175.489 140.666C175.374 140.886 175.163 141.049 174.856 141.154C174.683 141.211 174.472 141.259 174.223 141.297C173.983 141.326 173.744 141.35 173.504 141.369V142.416H182.249V141.369C182.028 141.34 181.803 141.293 181.573 141.226C181.343 141.159 181.151 141.082 180.997 140.996C180.777 140.881 180.619 140.714 180.523 140.494C180.427 140.265 180.379 139.983 180.379 139.648V131.947C180.494 131.794 180.633 131.617 180.796 131.417C180.969 131.216 181.194 131.02 181.472 130.829C181.788 130.609 182.11 130.441 182.436 130.327C182.771 130.212 183.131 130.155 183.514 130.155C184.214 130.155 184.742 130.403 185.097 130.9C185.461 131.388 185.643 132.119 185.643 133.094V139.806C185.643 140.198 185.6 140.494 185.514 140.695C185.427 140.896 185.283 141.049 185.082 141.154C184.948 141.221 184.751 141.269 184.492 141.297C184.234 141.326 184.013 141.35 183.831 141.369V142.416ZM172.497 130.814C172.497 131.541 172.272 132.181 171.821 132.736C171.37 133.281 170.776 133.553 170.038 133.553C169.338 133.553 168.743 133.376 168.254 133.023C167.775 132.669 167.535 132.148 167.535 131.46C167.535 131.125 167.559 130.867 167.607 130.685C167.625 130.612 167.643 130.541 167.66 130.472C167.687 130.361 167.713 130.255 167.736 130.155C167.295 130.174 166.83 130.327 166.341 130.613C165.852 130.9 165.421 131.283 165.047 131.761V139.634C165.047 139.968 165.1 140.246 165.205 140.466C165.311 140.685 165.488 140.858 165.737 140.982C165.948 141.087 166.289 141.178 166.758 141.254C167.238 141.321 167.583 141.359 167.794 141.369V142.416H158.172V141.369C158.412 141.35 158.651 141.326 158.891 141.297C159.14 141.259 159.351 141.211 159.524 141.154C159.831 141.049 160.042 140.886 160.157 140.666C160.272 140.446 160.329 140.16 160.329 139.806V131.46C160.329 131.115 160.248 130.809 160.085 130.542C159.922 130.265 159.725 130.045 159.495 129.882C159.322 129.767 159.102 129.672 158.833 129.595C158.575 129.519 158.287 129.466 157.97 129.438V128.391L164.831 128.018L165.047 128.233V130.312H165.104C165.766 129.547 166.466 128.95 167.204 128.52C167.952 128.08 168.729 127.86 169.534 127.86C170.426 127.86 171.14 128.137 171.677 128.692C172.224 129.237 172.497 129.944 172.497 130.814ZM155.554 140.537C156.034 140.05 156.441 139.533 156.777 138.988L155.684 138.2C155.175 138.955 154.562 139.581 153.843 140.078C153.123 140.566 152.313 140.81 151.412 140.81C149.763 140.81 148.559 140.298 147.802 139.275C147.044 138.252 146.666 136.761 146.666 134.801H156.388V133.869C156.388 133.056 156.264 132.282 156.014 131.546C155.765 130.8 155.367 130.155 154.821 129.61C154.255 129.036 153.541 128.587 152.678 128.262C151.815 127.937 150.712 127.774 149.37 127.774C148.142 127.774 147.03 127.984 146.033 128.405C145.045 128.826 144.225 129.375 143.573 130.054C142.912 130.752 142.399 131.55 142.034 132.449C141.68 133.338 141.502 134.27 141.502 135.246C141.502 136.326 141.665 137.33 141.991 138.257C142.327 139.175 142.83 139.973 143.501 140.652C144.173 141.331 145.021 141.871 146.047 142.273C147.083 142.674 148.31 142.875 149.729 142.875C150.583 142.875 151.335 142.779 151.987 142.588C152.649 142.406 153.301 142.134 153.943 141.771C154.547 141.426 155.084 141.015 155.554 140.537ZM151.196 131.775C151.254 132.377 151.282 132.965 151.282 133.539L146.666 133.596C146.704 131.981 146.944 130.8 147.385 130.054C147.826 129.308 148.415 128.936 149.154 128.936C149.585 128.936 149.94 129.05 150.218 129.28C150.506 129.509 150.731 129.849 150.894 130.298C151.038 130.68 151.139 131.173 151.196 131.775ZM140.308 141.756C139.695 142.024 139.038 142.263 138.338 142.473C137.638 142.693 136.785 142.803 135.778 142.803C134.282 142.803 133.17 142.44 132.441 141.713C131.722 140.987 131.362 139.949 131.362 138.601V129.796H128.773V128.247H131.42V123.902H136.094V128.247H140.121V129.796H136.123V137.655C136.123 138.773 136.276 139.567 136.583 140.035C136.9 140.504 137.461 140.738 138.266 140.738C138.525 140.738 138.884 140.719 139.345 140.681C139.805 140.642 140.126 140.599 140.308 140.552V141.756ZM118.432 142.488C119.324 142.765 120.235 142.904 121.165 142.904C123.15 142.904 124.756 142.473 125.983 141.613C127.22 140.752 127.838 139.538 127.838 137.97C127.838 136.794 127.441 135.829 126.645 135.073C125.849 134.309 124.593 133.706 122.876 133.267C121.764 132.98 120.896 132.674 120.273 132.349C119.659 132.024 119.353 131.498 119.353 130.771C119.353 130.226 119.564 129.801 119.985 129.495C120.407 129.189 120.987 129.036 121.726 129.036C122.665 129.036 123.543 129.399 124.358 130.126C125.173 130.843 125.748 131.699 126.084 132.693H127.105L126.875 127.803H125.782L125.48 128.649C124.981 128.438 124.363 128.247 123.624 128.075C122.896 127.894 122.095 127.803 121.222 127.803C119.381 127.803 117.89 128.219 116.749 129.05C115.618 129.882 115.052 130.972 115.052 132.32C115.052 133.047 115.182 133.673 115.44 134.199C115.699 134.725 116.045 135.174 116.476 135.547C116.975 135.967 117.454 136.278 117.914 136.479C118.384 136.67 118.945 136.861 119.597 137.052C120.249 137.244 120.796 137.406 121.237 137.54C121.687 137.674 122.1 137.836 122.474 138.028C122.809 138.209 123.073 138.424 123.265 138.673C123.456 138.922 123.552 139.237 123.552 139.619C123.552 140.327 123.337 140.853 122.905 141.197C122.483 141.532 121.836 141.699 120.963 141.699C120.302 141.699 119.679 141.551 119.094 141.254C118.518 140.958 118.005 140.595 117.555 140.164C117.123 139.734 116.74 139.251 116.404 138.716C116.068 138.171 115.829 137.683 115.685 137.253H114.635L114.822 142.602H115.944L116.375 141.627C116.864 141.933 117.55 142.22 118.432 142.488ZM112.449 136.178H103.733V133.008H112.449V136.178ZM99.2885 129.796H102.453V128.247H96.8722C96.5558 128.161 96.0907 128.066 95.4771 127.96C94.873 127.846 94.2449 127.788 93.5929 127.788C91.5985 127.788 89.9493 128.209 88.6452 129.05C87.3508 129.892 86.7035 131.015 86.7035 132.42C86.7035 133.415 87.0056 134.256 87.6096 134.944C88.2233 135.633 89.1774 136.216 90.4718 136.694V136.852C90.2129 136.928 89.8917 137.033 89.5082 137.167C89.1246 137.291 88.7986 137.444 88.5302 137.626C88.2233 137.836 87.9692 138.08 87.7679 138.357C87.5761 138.635 87.4802 138.974 87.4802 139.376C87.4802 140.026 87.7247 140.599 88.2137 141.097C88.7123 141.584 89.4027 141.976 90.2849 142.273V142.445C88.789 142.492 87.6864 142.76 86.9768 143.248C86.2673 143.735 85.9125 144.357 85.9125 145.112C85.9125 146.336 86.5693 147.254 87.8829 147.865C89.1966 148.477 91.1143 148.783 93.6361 148.783C95.199 148.783 96.5078 148.649 97.5626 148.382C98.6269 148.114 99.5378 147.736 100.295 147.249C101.014 146.78 101.547 146.226 101.892 145.585C102.247 144.945 102.424 144.261 102.424 143.535C102.424 142.856 102.28 142.258 101.992 141.742C101.705 141.216 101.34 140.786 100.899 140.451C100.497 140.136 100.022 139.882 99.4755 139.691C98.9289 139.49 98.3776 139.376 97.8215 139.347C97.4379 139.337 96.8003 139.309 95.9085 139.261C95.0168 139.204 94.1347 139.165 93.2621 139.146C92.38 139.127 91.7711 139.036 91.4355 138.874C91.0999 138.711 90.9321 138.42 90.9321 137.999C90.9321 137.827 90.9992 137.65 91.1334 137.468C91.2773 137.277 91.4067 137.139 91.5218 137.052H93.8662C94.7867 137.052 95.6401 136.947 96.4263 136.737C97.2126 136.527 97.8982 136.235 98.4831 135.862C99.0584 135.499 99.5234 135.03 99.8782 134.457C100.233 133.874 100.41 133.252 100.41 132.592C100.41 132.086 100.314 131.598 100.123 131.13C99.9405 130.661 99.6625 130.217 99.2885 129.796ZM95.175 129.882C95.5298 130.532 95.7072 131.417 95.7072 132.535C95.7072 133.635 95.5202 134.485 95.1463 135.088C94.7819 135.69 94.2545 135.991 93.5641 135.991C92.8929 135.991 92.3752 135.657 92.0108 134.987C91.6464 134.318 91.4642 133.463 91.4642 132.42C91.4642 131.962 91.493 131.517 91.5505 131.087C91.6081 130.647 91.7183 130.265 91.8814 129.939C92.0539 129.605 92.2793 129.352 92.5573 129.179C92.8354 128.998 93.1614 128.907 93.5354 128.907C94.2737 128.907 94.8202 129.232 95.175 129.882ZM97.8502 143.606C98.0324 143.931 98.1235 144.256 98.1235 144.581C98.1235 145.643 97.7975 146.412 97.1455 146.89C96.4934 147.368 95.549 147.607 94.312 147.607C93.4778 147.607 92.8546 147.526 92.4423 147.363C92.03 147.211 91.656 146.995 91.3204 146.718C91.0328 146.47 90.8218 146.202 90.6876 145.915C90.5533 145.628 90.4862 145.365 90.4862 145.126C90.4862 144.572 90.5965 144.099 90.817 143.707C91.0471 143.315 91.33 142.975 91.6656 142.688C93.0464 142.688 94.1299 142.698 94.9161 142.717C95.712 142.736 96.2825 142.774 96.6277 142.832C97.2605 143.033 97.668 143.291 97.8502 143.606ZM85.1789 142.115L78.3183 142.531L78.1026 142.33V140.451H78.0163C77.6903 140.748 77.3691 141.039 77.0526 141.326C76.7458 141.603 76.3767 141.857 75.9452 142.086C75.4562 142.344 74.9911 142.535 74.55 142.66C74.1185 142.784 73.4857 142.846 72.6515 142.846C71.2036 142.846 70.0914 142.411 69.3147 141.541C68.5476 140.671 68.1641 139.443 68.1641 137.856V131.402C68.1641 131.029 68.0921 130.728 67.9483 130.499C67.8045 130.26 67.6127 130.049 67.373 129.868C67.1812 129.724 66.9319 129.624 66.6251 129.567C66.3183 129.5 66.0402 129.457 65.7909 129.438V128.391L72.7666 128.018L72.9248 128.233V137.77C72.9248 138.754 73.1117 139.481 73.4857 139.949C73.8692 140.418 74.3918 140.652 75.0534 140.652C75.7342 140.652 76.3431 140.475 76.8801 140.121C77.4266 139.768 77.8245 139.39 78.0738 138.988V131.259C78.0738 130.934 78.0115 130.642 77.8868 130.384C77.7622 130.126 77.58 129.916 77.3403 129.753C77.1677 129.638 76.9184 129.562 76.5924 129.524C76.276 129.485 75.95 129.457 75.6144 129.438V128.391L82.59 128.018L82.8058 128.233V139.304C82.8058 139.639 82.8729 139.925 83.0071 140.164C83.1414 140.394 83.3379 140.59 83.5968 140.752C83.779 140.867 84.0139 140.948 84.3016 140.996C84.5988 141.034 84.8913 141.058 85.1789 141.068V142.115ZM50.7321 142.416H64.8848V137.067H63.8636C63.7581 137.507 63.6047 138.009 63.4033 138.573C63.202 139.127 63.039 139.543 62.9143 139.82C62.7801 140.126 62.5931 140.389 62.3534 140.609C62.1233 140.829 61.8116 140.963 61.4185 141.011C61.1213 141.049 60.7042 141.082 60.1672 141.111C59.6302 141.13 59.1268 141.14 58.657 141.14C58.2543 141.14 57.8324 141.135 57.3913 141.125C56.9502 141.116 56.6146 141.111 56.3845 141.111L64.669 129.079V128.19H51.293V132.879H52.3142C52.4868 132.201 52.7217 131.55 53.0189 130.929C53.3258 130.298 53.5703 129.949 53.7525 129.882C54.2798 129.681 54.999 129.567 55.9099 129.538C56.8208 129.509 57.8468 129.495 58.9878 129.495L50.7321 141.426V142.416ZM49.5958 142.416H41.0236V141.369C41.2346 141.34 41.4551 141.316 41.6853 141.297C41.9154 141.278 42.1072 141.23 42.2606 141.154C42.4715 141.058 42.6058 140.901 42.6633 140.681C42.7208 140.451 42.7496 140.16 42.7496 139.806V133.109C42.7496 132.124 42.5722 131.388 42.2174 130.9C41.8722 130.403 41.3736 130.155 40.7216 130.155C40.3093 130.155 39.9401 130.221 39.6141 130.355C39.2977 130.48 39.0053 130.637 38.7368 130.829C38.4587 131.029 38.243 131.23 38.0895 131.431C37.9361 131.632 37.8067 131.804 37.7012 131.947V139.648C37.7012 139.992 37.7396 140.274 37.8163 140.494C37.9026 140.705 38.056 140.872 38.2765 140.996C38.4299 141.082 38.6025 141.159 38.7943 141.226C38.9957 141.293 39.2066 141.34 39.4272 141.369V142.416H31.2146V141.369C31.3967 141.35 31.6173 141.326 31.8762 141.297C32.1351 141.269 32.3268 141.221 32.4515 141.154C32.6528 141.049 32.7823 140.896 32.8398 140.695C32.9069 140.494 32.9405 140.198 32.9405 139.806V133.109C32.9405 132.124 32.7631 131.388 32.4083 130.9C32.0631 130.403 31.5645 130.155 30.9125 130.155C30.5002 130.155 30.131 130.221 29.805 130.355C29.4886 130.48 29.1962 130.637 28.9277 130.829C28.6496 131.029 28.4339 131.23 28.2805 131.431C28.127 131.632 27.9976 131.804 27.8921 131.947V139.648C27.8921 139.983 27.9353 140.26 28.0216 140.48C28.1079 140.7 28.2613 140.872 28.4818 140.996C28.6352 141.082 28.8078 141.159 28.9996 141.226C29.201 141.293 29.4119 141.34 29.6324 141.369V142.416H21.0171V141.369C21.2664 141.35 21.5109 141.326 21.7506 141.297C21.9904 141.269 22.1965 141.221 22.3691 141.154C22.6759 141.039 22.8869 140.877 23.002 140.666C23.117 140.446 23.1745 140.16 23.1745 139.806V131.46C23.1745 131.154 23.093 130.857 22.93 130.57C22.767 130.274 22.5705 130.045 22.3403 129.882C22.1677 129.767 21.9472 129.672 21.6787 129.595C21.4198 129.519 21.1322 129.466 20.8158 129.438V128.391L27.6764 128.018L27.8921 128.233V130.255H27.9496C28.2181 130.016 28.5345 129.734 28.8989 129.409C29.2729 129.074 29.6229 128.807 29.9489 128.606C30.3036 128.376 30.7591 128.185 31.3152 128.032C31.8714 127.879 32.4802 127.803 33.1419 127.803C34.2349 127.803 35.1459 128.042 35.8746 128.52C36.6129 128.988 37.1355 129.614 37.4423 130.398H37.5718C37.8498 130.14 38.1902 129.839 38.5929 129.495C38.9957 129.141 39.3648 128.859 39.7004 128.649C40.0744 128.41 40.549 128.209 41.1243 128.046C41.7092 127.884 42.3325 127.803 42.9941 127.803C44.442 127.803 45.5542 128.228 46.3309 129.079C47.1172 129.93 47.5103 131.139 47.5103 132.707V139.677C47.5103 140.031 47.563 140.317 47.6685 140.537C47.774 140.748 47.9658 140.91 48.2438 141.025C48.3972 141.092 48.5842 141.159 48.8048 141.226C49.0349 141.293 49.2986 141.34 49.5958 141.369V142.416ZM12.9915 142.531L19.8521 142.115V141.068C19.5645 141.058 19.272 141.034 18.9748 140.996C18.6871 140.948 18.4522 140.867 18.27 140.752C18.0111 140.59 17.8145 140.394 17.6803 140.164C17.5461 139.925 17.4789 139.639 17.4789 139.304V128.233L17.2632 128.018L10.2875 128.391V129.438C10.6231 129.457 10.9491 129.485 11.2656 129.524C11.5916 129.562 11.8409 129.638 12.0135 129.753C12.2532 129.916 12.4354 130.126 12.56 130.384C12.6847 130.642 12.747 130.934 12.747 131.259V138.988C12.4977 139.39 12.0998 139.768 11.5532 140.121C11.0163 140.475 10.4074 140.652 9.7266 140.652C9.06499 140.652 8.54241 140.418 8.15887 139.949C7.78491 139.481 7.59794 138.754 7.59794 137.77V128.233L7.43972 128.018L0.46405 128.391V129.438C0.713353 129.457 0.991421 129.5 1.29825 129.567C1.60509 129.624 1.85439 129.724 2.04616 129.868C2.28588 130.049 2.47765 130.26 2.62148 130.499C2.7653 130.728 2.83722 131.029 2.83722 131.402V137.856C2.83722 139.443 3.22076 140.671 3.98784 141.541C4.76452 142.411 5.87679 142.846 7.32466 142.846C8.15887 142.846 8.79171 142.784 9.2232 142.66C9.66427 142.535 10.1293 142.344 10.6183 142.086C11.0498 141.857 11.419 141.603 11.7258 141.326C12.0422 141.039 12.3634 140.748 12.6895 140.451H12.7758V142.33L12.9915 142.531Z" fill="white"/>
</svg>
