<svg width="80" height="50" viewBox="0 0 80 50" fill="none" xmlns="http://www.w3.org/2000/svg">
<path fill-rule="evenodd" clip-rule="evenodd" d="M3.75283 32.0334C4.564 34.0581 5.06374 34.2103 5.73263 34.414L5.73266 34.414C5.93177 34.4746 6.14586 34.5398 6.38762 34.6604L6.84792 34.6644C6.84143 34.5393 6.83814 34.4134 6.83814 34.2867C6.83814 30.314 10.0681 27.0935 14.0525 27.0935C18.0369 27.0935 21.2669 30.314 21.2669 34.2867C21.2669 34.4559 21.261 34.6238 21.2495 34.7901C32.9001 34.8908 46.2912 35.0042 56.3269 35.0837C56.298 34.822 56.2831 34.5561 56.2831 34.2867C56.2831 30.314 59.5131 27.0935 63.4975 27.0935C67.4819 27.0935 70.7119 30.314 70.7119 34.2867C70.7119 34.5908 70.693 34.8905 70.6562 35.1846C70.8778 35.1854 71.0604 35.1858 71.2019 35.1858C75.4175 35.1858 76.4714 32.7339 76.4714 31.508L76.4717 9.29731L76.4718 4.18693C76.4718 2.22628 74.8909 0.509086 72.7831 0.509096C69.0865 0.509113 64.1271 0.46506 59.0242 0.419733C48.3651 0.325051 37.08 0.224807 35.3696 0.509053C32.8402 0.929377 30.8027 2.08527 30.1001 2.61067C26.2358 5.58796 17.5588 12.2781 13.7648 15.2204C12.8245 15.9495 11.9465 16.5961 11.1305 17.1969C7.83087 19.6265 5.54748 21.3078 4.27984 24.6777C3.61283 26.4508 3.54234 31.508 3.75283 32.0334ZM22.7232 33.6096V32.0334H55.1019V33.6096H22.7232ZM31.5045 20.9999H28.5196V22.0507H31.5045V20.9999ZM40.3174 20.9999H37.6302V22.0507H40.3174V20.9999ZM73.223 23.2233V21.8248L56.1921 21.7999V10.2804H55.7628L55.7729 21.7993L53.7019 21.7963L51.5264 23.2233H55.7741L55.7771 26.6622H56.1921V23.2233H73.223ZM30.4421 8.04121V7.63895H75.3026V8.04121H30.4421ZM34.9602 10.3146H34.5555V30.8286H34.9602V10.3146ZM23.361 10.5516L18.123 14.4473C18.0085 14.5091 17.6592 14.7469 17.1784 15.2035C16.6975 15.6601 16.2624 16.9703 16.2624 17.6744V19.6272C16.2624 20.255 16.2624 20.8829 16.792 21.2825C17.2156 21.6021 17.8558 21.5774 18.123 21.5251C21.7057 20.7878 29.1401 19.2504 30.2164 18.9993C31.2926 18.7481 31.6285 17.7435 31.6618 17.2726C31.6714 15.5222 31.6847 11.8672 31.6618 11.2508C31.6332 10.4802 31.0464 9.86662 30.5885 9.86662C30.4893 9.86662 30.3482 9.86796 30.1579 9.86976H30.1578H30.1578H30.1578H30.1578H30.1577H30.1577H30.1576H30.1576H30.1575H30.1575H30.1574C29.4688 9.8763 28.1351 9.88895 25.8035 9.86662C24.41 9.85328 23.7441 10.2966 23.3816 10.5379L23.361 10.5516ZM38.6282 9.94151C38.0759 9.94151 37.6282 10.3892 37.6282 10.9415V17.7718C37.6282 18.3241 38.0759 18.7718 38.6282 18.7718H45.3352C45.8874 18.7718 46.3352 18.3241 46.3352 17.7718V10.9415C46.3352 10.3892 45.8874 9.94151 45.3352 9.94151H38.6282ZM74.3174 10.3543C74.3174 9.99588 74.608 9.70529 74.9664 9.70529H75.0364C75.3948 9.70529 75.6854 9.99588 75.6854 10.3543V15.7981C75.6854 16.1566 75.3948 16.4472 75.0364 16.4472H74.9664C74.608 16.4472 74.3174 16.1566 74.3174 15.7981V10.3543ZM74.9769 27.875C74.6169 27.875 74.3251 28.1669 74.3251 28.5269V30.4053C74.3251 30.7654 74.6169 31.0572 74.9769 31.0572H75.0472C75.4072 31.0572 75.699 30.7654 75.699 30.4053V28.5269C75.699 28.1669 75.4072 27.875 75.0472 27.875H74.9769ZM7.61062 24.1927C6.64066 25.237 5.56797 25.8192 5.21469 25.4931C4.86142 25.1669 5.36134 24.0558 6.3313 23.0115C7.30126 21.9671 8.37395 21.3849 8.72722 21.7111C9.0805 22.0373 8.58057 23.1483 7.61062 24.1927ZM19.3893 34.2904C19.3893 37.2439 16.9879 39.6383 14.0257 39.6383C11.0635 39.6383 8.66212 37.2439 8.66212 34.2904C8.66212 31.3368 11.0635 28.9425 14.0257 28.9425C16.9879 28.9425 19.3893 31.3368 19.3893 34.2904ZM17.6323 34.2904C17.6323 36.2764 16.0176 37.8864 14.0257 37.8864C12.0339 37.8864 10.4192 36.2764 10.4192 34.2904C10.4192 32.3044 12.0339 30.6944 14.0257 30.6944C16.0176 30.6944 17.6323 32.3044 17.6323 34.2904ZM14.0257 35.9459C14.9427 35.9459 15.6861 35.2047 15.6861 34.2904C15.6861 33.3761 14.9427 32.6349 14.0257 32.6349C13.1088 32.6349 12.3654 33.3761 12.3654 34.2904C12.3654 35.2047 13.1088 35.9459 14.0257 35.9459ZM13.117 31.626C13.117 31.4273 13.2781 31.2662 13.4768 31.2662H14.5747C14.7734 31.2662 14.9345 31.4273 14.9345 31.626V31.6626C14.9345 31.8613 14.7734 32.0225 14.5747 32.0225H13.4768C13.2781 32.0225 13.117 31.8613 13.117 31.6626V31.626ZM13.4768 36.6273C13.2781 36.6273 13.117 36.7884 13.117 36.9871V37.0237C13.117 37.2224 13.2781 37.3836 13.4768 37.3836H14.5747C14.7734 37.3836 14.9345 37.2224 14.9345 37.0237V36.9871C14.9345 36.7884 14.7734 36.6273 14.5747 36.6273H13.4768ZM11.2445 33.6771C11.0753 33.5729 11.023 33.3514 11.1277 33.1824L11.7038 32.2525C11.8084 32.0835 12.0305 32.031 12.1997 32.1353L12.2322 32.1553C12.4014 32.2595 12.4538 32.481 12.3491 32.6499L11.773 33.5799C11.6683 33.7488 11.4463 33.8013 11.2771 33.6971L11.2445 33.6771ZM15.7021 35.9998C15.5975 36.1688 15.6498 36.3902 15.819 36.4945L15.8515 36.5145C16.0208 36.6187 16.2428 36.5662 16.3475 36.3973L16.9236 35.4673C17.0283 35.2983 16.9759 35.0769 16.8067 34.9727L16.7742 34.9526C16.605 34.8484 16.3829 34.9009 16.2783 35.0698L15.7021 35.9998ZM12.0683 36.3988C11.893 36.4924 11.6746 36.4265 11.5805 36.2514L11.0627 35.2881C10.9686 35.113 11.0344 34.8952 11.2097 34.8015L11.2435 34.7834C11.4188 34.6898 11.6372 34.7557 11.7313 34.9308L12.2491 35.8941C12.3432 36.0692 12.2774 36.2871 12.1021 36.3807L12.0683 36.3988ZM16.3198 33.7189C16.4139 33.894 16.6322 33.96 16.8075 33.8663L16.8413 33.8482C17.0166 33.7546 17.0824 33.5367 16.9883 33.3617L16.4705 32.3983C16.3764 32.2233 16.158 32.1573 15.9827 32.2509L15.9489 32.269C15.7737 32.3627 15.7078 32.5805 15.8019 32.7556L16.3198 33.7189ZM63.4812 39.6383C66.4435 39.6383 68.8448 37.2439 68.8448 34.2904C68.8448 31.3368 66.4435 28.9425 63.4812 28.9425C60.519 28.9425 58.1177 31.3368 58.1177 34.2904C58.1177 37.2439 60.519 39.6383 63.4812 39.6383ZM63.4813 37.8864C65.4731 37.8864 67.0878 36.2764 67.0878 34.2904C67.0878 32.3044 65.4731 30.6944 63.4813 30.6944C61.4894 30.6944 59.8747 32.3044 59.8747 34.2904C59.8747 36.2764 61.4894 37.8864 63.4813 37.8864ZM65.1416 34.2904C65.1416 35.2047 64.3983 35.9459 63.4813 35.9459C62.5643 35.9459 61.8209 35.2047 61.8209 34.2904C61.8209 33.3761 62.5643 32.6349 63.4813 32.6349C64.3983 32.6349 65.1416 33.3761 65.1416 34.2904ZM62.9324 31.2662C62.7336 31.2662 62.5725 31.4273 62.5725 31.626V31.6626C62.5725 31.8613 62.7336 32.0225 62.9324 32.0225H64.0302C64.2289 32.0225 64.3901 31.8613 64.3901 31.6626V31.626C64.3901 31.4273 64.2289 31.2662 64.0302 31.2662H62.9324ZM62.5725 36.9871C62.5725 36.7884 62.7336 36.6273 62.9324 36.6273H64.0302C64.2289 36.6273 64.3901 36.7884 64.3901 36.9871V37.0237C64.3901 37.2224 64.2289 37.3836 64.0302 37.3836H62.9324C62.7336 37.3836 62.5725 37.2224 62.5725 37.0237V36.9871ZM60.5832 33.1824C60.4786 33.3514 60.5309 33.5729 60.7001 33.6771L60.7326 33.6971C60.9019 33.8013 61.1239 33.7488 61.2286 33.5799L61.8047 32.6499C61.9094 32.481 61.857 32.2595 61.6878 32.1553L61.6553 32.1353C61.4861 32.031 61.264 32.0835 61.1594 32.2525L60.5832 33.1824ZM65.2746 36.4945C65.1054 36.3902 65.0531 36.1688 65.1577 35.9998L65.7339 35.0698C65.8385 34.9009 66.0606 34.8484 66.2298 34.9526L66.2623 34.9727C66.4315 35.0769 66.4839 35.2983 66.3792 35.4673L65.8031 36.3973C65.6984 36.5662 65.4764 36.6187 65.3071 36.5145L65.2746 36.4945ZM61.0362 36.2514C61.1303 36.4265 61.3487 36.4924 61.5239 36.3988L61.5577 36.3807C61.733 36.2871 61.7988 36.0692 61.7047 35.8941L61.1869 34.9308C61.0928 34.7557 60.8744 34.6898 60.6991 34.7834L60.6654 34.8015C60.4901 34.8952 60.4242 35.113 60.5183 35.2881L61.0362 36.2514ZM66.2631 33.8663C66.0878 33.96 65.8694 33.894 65.7753 33.7189L65.2575 32.7556C65.1634 32.5805 65.2292 32.3627 65.4045 32.269L65.4383 32.2509C65.6135 32.1573 65.8319 32.2233 65.926 32.3983L66.4438 33.3617C66.5379 33.5367 66.4721 33.7546 66.2968 33.8482L66.2631 33.8663ZM79.5026 46.3855C79.3912 46.5664 79.256 46.7377 79.0968 46.8996C78.9409 47.0582 78.7627 47.1947 78.5622 47.3089C78.349 47.4295 78.1326 47.5199 77.913 47.5802C77.6966 47.6436 77.4468 47.6754 77.1636 47.6754C76.6926 47.6754 76.2853 47.6087 75.9416 47.4755C75.6011 47.3422 75.3195 47.1629 75.0967 46.9376C74.8739 46.7124 74.7069 46.4474 74.5955 46.1428C74.4873 45.835 74.4332 45.5019 74.4332 45.1433C74.4332 44.8197 74.4921 44.5103 74.6098 44.2152C74.7307 43.917 74.901 43.652 75.1206 43.4204C75.337 43.1951 75.609 43.0127 75.9368 42.8731C76.2678 42.7334 76.6369 42.6636 77.0443 42.6636C77.4898 42.6636 77.8557 42.7176 78.1422 42.8255C78.4286 42.9333 78.6656 43.0825 78.8534 43.2728C79.0348 43.4537 79.1668 43.6679 79.2496 43.9154C79.3323 44.1597 79.3737 44.4167 79.3737 44.6864V44.9958H76.1469C76.1469 45.6462 76.2726 46.1412 76.524 46.4807C76.7754 46.8202 77.1747 46.99 77.7221 46.99C78.0212 46.99 78.2901 46.9091 78.5288 46.7473C78.7675 46.5823 78.9711 46.3744 79.1398 46.1238L79.5026 46.3855ZM77.6791 44.5769C77.6791 44.3866 77.6696 44.1914 77.6505 43.9915C77.6314 43.7916 77.598 43.6282 77.5502 43.5013C77.4961 43.3522 77.4214 43.2395 77.3259 43.1634C77.2336 43.0872 77.1159 43.0492 76.9727 43.0492C76.7276 43.0492 76.5319 43.1729 76.3855 43.4204C76.2391 43.6679 76.1596 44.0597 76.1469 44.596L77.6791 44.5769ZM71.7076 47.5611L74.0609 47.4231V47.0757C73.9781 47.0725 73.8715 47.063 73.741 47.0471C73.6137 47.0312 73.5167 47.0059 73.4499 46.971C73.3608 46.9234 73.2955 46.8583 73.2542 46.7758C73.216 46.6933 73.1969 46.5918 73.1969 46.4712V40.2315L73.1253 40.1554L70.5476 40.2791V40.6266C70.6972 40.6393 70.8452 40.6615 70.9915 40.6932C71.1411 40.7218 71.2652 40.771 71.3639 40.8408C71.4434 40.8979 71.5071 40.9788 71.5548 41.0835C71.6025 41.185 71.6264 41.2945 71.6264 41.4119V42.9682C71.4896 42.8889 71.3066 42.8207 71.0775 42.7636C70.8483 42.7033 70.6033 42.6732 70.3424 42.6732C69.6804 42.6732 69.1156 42.9127 68.6478 43.3918C68.1832 43.871 67.9509 44.4453 67.9509 45.1148C67.9509 45.8699 68.1593 46.4855 68.5762 46.9614C68.9931 47.4374 69.5229 47.6754 70.1657 47.6754C70.4362 47.6754 70.7035 47.6135 70.9677 47.4897C71.235 47.3628 71.4466 47.2153 71.6025 47.0471L71.636 47.0566V47.4945L71.7076 47.5611ZM71.6264 43.8868V46.5759C71.5182 46.6997 71.4005 46.7996 71.2732 46.8758C71.1459 46.9487 70.9852 46.9852 70.7911 46.9852C70.5874 46.9852 70.4124 46.9376 70.266 46.8424C70.1228 46.7473 70.005 46.6156 69.9128 46.4474C69.8205 46.2792 69.7552 46.0936 69.717 45.8906C69.682 45.6843 69.6645 45.4527 69.6645 45.1957C69.6645 44.542 69.7664 44.0359 69.97 43.6774C70.1737 43.3189 70.4346 43.1396 70.7529 43.1396C70.8865 43.1396 71.0059 43.165 71.1109 43.2157C71.2191 43.2665 71.305 43.3252 71.3686 43.3918C71.4387 43.4712 71.4928 43.5552 71.5309 43.6441C71.5723 43.7329 71.6041 43.8138 71.6264 43.8868ZM66.9532 46.733C66.9532 46.9837 66.8593 47.201 66.6716 47.385C66.487 47.5691 66.2674 47.6611 66.0128 47.6611C65.7551 47.6611 65.5323 47.5706 65.3446 47.3898C65.16 47.2058 65.0677 46.9868 65.0677 46.733C65.0677 46.4791 65.16 46.2602 65.3446 46.0762C65.5323 45.889 65.7551 45.7954 66.0128 45.7954C66.2674 45.7954 66.487 45.889 66.6716 46.0762C66.8593 46.2634 66.9532 46.4823 66.9532 46.733ZM61.3587 47.5231H64.2324V47.1756C64.1369 47.1661 64.051 47.1502 63.9746 47.128C63.9014 47.1058 63.8393 47.0836 63.7884 47.0614C63.693 47.0201 63.6277 46.9646 63.5927 46.8948C63.5577 46.825 63.5402 46.7314 63.5402 46.614V44.2819C63.5402 43.7964 63.4097 43.4077 63.1488 43.1158C62.891 42.8207 62.5028 42.6732 61.9841 42.6732C61.7677 42.6732 61.564 42.7001 61.3731 42.7541C61.1821 42.808 61.0278 42.8731 60.91 42.9492C60.8018 43.019 60.6841 43.1094 60.5568 43.2205C60.4295 43.3316 60.3213 43.4267 60.2322 43.5061H60.2131V42.8159L60.1415 42.7445L57.8646 42.8683V43.2157C57.9696 43.2253 58.0651 43.2427 58.151 43.2681C58.2401 43.2935 58.3133 43.3252 58.3706 43.3633C58.4533 43.4236 58.5201 43.5013 58.5711 43.5965C58.622 43.6917 58.6474 43.7885 58.6474 43.8868V46.6568C58.6474 46.7742 58.6283 46.8694 58.5902 46.9424C58.552 47.0154 58.482 47.0693 58.3801 47.1042C58.3228 47.1233 58.2528 47.1391 58.1701 47.1518C58.0905 47.1613 58.011 47.1693 57.9314 47.1756V47.5231H60.8337V47.1756C60.7605 47.1661 60.6857 47.1502 60.6093 47.128C60.5329 47.1058 60.4693 47.0804 60.4184 47.0519C60.3452 47.0138 60.2927 46.9583 60.2609 46.8853C60.229 46.8091 60.2131 46.7155 60.2131 46.6045V44.0486C60.2513 43.9979 60.2975 43.9392 60.3516 43.8725C60.4088 43.8059 60.4836 43.7409 60.5759 43.6774C60.6809 43.6044 60.7875 43.5489 60.8957 43.5108C61.0071 43.4727 61.1264 43.4537 61.2537 43.4537C61.486 43.4537 61.6611 43.5362 61.7788 43.7012C61.8997 43.863 61.9602 44.1058 61.9602 44.4294V46.6568C61.9602 46.7869 61.9459 46.8853 61.9172 46.9519C61.8886 47.0186 61.8409 47.0693 61.774 47.1042C61.7295 47.1264 61.6642 47.1423 61.5783 47.1518C61.4924 47.1613 61.4192 47.1693 61.3587 47.1756V47.5231ZM57.5973 43.6726C57.5973 43.9138 57.5225 44.1264 57.3729 44.3104C57.2234 44.4913 57.0261 44.5817 56.781 44.5817C56.5487 44.5817 56.3514 44.523 56.1891 44.4056C56.03 44.2882 55.9504 44.1153 55.9504 43.8868C55.9504 43.7758 55.9584 43.6901 55.9743 43.6298C55.9902 43.5663 56.0045 43.5076 56.0173 43.4537C55.8709 43.4601 55.7165 43.5108 55.5542 43.606C55.392 43.7012 55.2487 43.8281 55.1246 43.9868V46.5997C55.1246 46.7108 55.1421 46.8028 55.1771 46.8758C55.2122 46.9487 55.271 47.0059 55.3538 47.0471C55.4238 47.082 55.5367 47.1122 55.6927 47.1375C55.8518 47.1597 55.9664 47.1724 56.0364 47.1756V47.5231H52.8429V47.1756C52.9225 47.1693 53.0021 47.1613 53.0816 47.1518C53.1643 47.1391 53.2344 47.1233 53.2916 47.1042C53.3935 47.0693 53.4635 47.0154 53.5017 46.9424C53.5399 46.8694 53.559 46.7742 53.559 46.6568V43.8868C53.559 43.7726 53.5319 43.6711 53.4778 43.5822C53.4237 43.4902 53.3585 43.4172 53.2821 43.3633C53.2248 43.3252 53.1516 43.2935 53.0625 43.2681C52.9766 43.2427 52.8811 43.2253 52.7761 43.2157V42.8683L55.053 42.7445L55.1246 42.8159V43.5061H55.1437C55.3633 43.2522 55.5956 43.0539 55.8407 42.9111C56.0889 42.7652 56.3466 42.6922 56.614 42.6922C56.9099 42.6922 57.147 42.7842 57.3252 42.9682C57.5066 43.1491 57.5973 43.3839 57.5973 43.6726ZM51.9742 46.8996C52.1333 46.7377 52.2685 46.5664 52.3799 46.3855L52.0171 46.1238C51.8485 46.3744 51.6448 46.5823 51.4061 46.7473C51.1675 46.9091 50.8986 46.99 50.5994 46.99C50.0521 46.99 49.6527 46.8202 49.4013 46.4807C49.1499 46.1412 49.0242 45.6462 49.0242 44.9958H52.251V44.6864C52.251 44.4167 52.2097 44.1597 52.1269 43.9154C52.0442 43.6679 51.9121 43.4537 51.7307 43.2728C51.543 43.0825 51.3059 42.9333 51.0195 42.8255C50.7331 42.7176 50.3671 42.6636 49.9216 42.6636C49.5143 42.6636 49.1451 42.7334 48.8142 42.8731C48.4864 43.0127 48.2143 43.1951 47.9979 43.4204C47.7783 43.652 47.6081 43.917 47.4871 44.2152C47.3694 44.5103 47.3105 44.8197 47.3105 45.1433C47.3105 45.5019 47.3646 45.835 47.4728 46.1428C47.5842 46.4474 47.7513 46.7124 47.974 46.9376C48.1968 47.1629 48.4784 47.3422 48.8189 47.4755C49.1626 47.6087 49.57 47.6754 50.0409 47.6754C50.3242 47.6754 50.574 47.6436 50.7904 47.5802C51.0099 47.5199 51.2263 47.4295 51.4395 47.3089C51.64 47.1947 51.8182 47.0582 51.9742 46.8996ZM50.5278 43.9915C50.5469 44.1914 50.5565 44.3866 50.5565 44.5769L49.0242 44.596C49.0369 44.0597 49.1165 43.6679 49.2629 43.4204C49.4092 43.1729 49.605 43.0492 49.85 43.0492C49.9932 43.0492 50.1109 43.0872 50.2032 43.1634C50.2987 43.2395 50.3735 43.3522 50.4276 43.5013C50.4753 43.6282 50.5087 43.7916 50.5278 43.9915ZM46.9143 47.3041C46.7107 47.393 46.4927 47.4723 46.2604 47.5421C46.0281 47.6151 45.7448 47.6516 45.4107 47.6516C44.9143 47.6516 44.5451 47.531 44.3033 47.2898C44.0646 47.0487 43.9452 46.7044 43.9452 46.257V43.3347H43.086V42.8207H43.9643V41.3786H45.5157V42.8207H46.8523V43.3347H45.5253V45.9429C45.5253 46.3142 45.5762 46.5775 45.678 46.733C45.783 46.8885 45.9692 46.9662 46.2365 46.9662C46.3224 46.9662 46.4418 46.9599 46.5945 46.9472C46.7473 46.9345 46.8539 46.9202 46.9143 46.9043V47.3041ZM39.6539 47.5469C39.9499 47.6389 40.2522 47.6849 40.5609 47.6849C41.2196 47.6849 41.7526 47.5421 42.16 47.2565C42.5705 46.971 42.7758 46.568 42.7758 46.0476C42.7758 45.6573 42.6437 45.3369 42.3796 45.0862C42.1154 44.8324 41.6985 44.6325 41.1289 44.4865C40.7598 44.3913 40.4718 44.2898 40.2649 44.1819C40.0613 44.074 39.9594 43.8995 39.9594 43.6584C39.9594 43.4775 40.0294 43.3363 40.1695 43.2348C40.3095 43.1332 40.502 43.0825 40.747 43.0825C41.0589 43.0825 41.3501 43.203 41.6206 43.4442C41.8911 43.6822 42.082 43.9661 42.1934 44.2961H42.5323L42.4559 42.6732H42.0932L41.9929 42.954C41.8274 42.8842 41.6222 42.8207 41.3771 42.7636C41.1353 42.7033 40.8696 42.6732 40.58 42.6732C39.969 42.6732 39.4741 42.8112 39.0954 43.0872C38.7199 43.3633 38.5322 43.725 38.5322 44.1724C38.5322 44.4135 38.5751 44.6214 38.661 44.7959C38.747 44.9704 38.8615 45.1195 39.0047 45.2433C39.1702 45.3829 39.3293 45.486 39.4821 45.5526C39.638 45.6161 39.8242 45.6796 40.0406 45.743C40.257 45.8065 40.4384 45.8604 40.5847 45.9048C40.7343 45.9493 40.8712 46.0032 40.9953 46.0667C41.1066 46.1269 41.1942 46.1983 41.2578 46.2808C41.3214 46.3633 41.3533 46.468 41.3533 46.595C41.3533 46.8298 41.2817 47.0043 41.1385 47.1185C40.9984 47.2296 40.7836 47.2851 40.494 47.2851C40.2745 47.2851 40.0676 47.2359 39.8735 47.1375C39.6826 47.0392 39.5123 46.9186 39.3627 46.7758C39.2195 46.633 39.0923 46.4728 38.9809 46.2951C38.8695 46.1143 38.7899 45.9524 38.7422 45.8096H38.3937L38.4558 47.5849H38.8281L38.9713 47.2613C39.1336 47.3628 39.3612 47.458 39.6539 47.5469ZM37.6682 45.4527H34.7755V44.4008H37.6682V45.4527ZM33.3005 43.3347H34.3506V42.8207H32.4985C32.3935 42.7921 32.2392 42.7604 32.0355 42.7255C31.835 42.6874 31.6266 42.6684 31.4102 42.6684C30.7483 42.6684 30.2009 42.808 29.7681 43.0872C29.3385 43.3665 29.1237 43.7393 29.1237 44.2057C29.1237 44.5357 29.224 44.8149 29.4244 45.0434C29.6281 45.2718 29.9448 45.4654 30.3744 45.624V45.6764C30.2884 45.7018 30.1818 45.7367 30.0545 45.7811C29.9273 45.8223 29.8191 45.8731 29.7299 45.9334C29.6281 46.0032 29.5438 46.0841 29.477 46.1761C29.4133 46.2681 29.3815 46.3808 29.3815 46.514C29.3815 46.7298 29.4626 46.9202 29.6249 47.0852C29.7904 47.247 30.0195 47.3771 30.3123 47.4755V47.5326C29.8159 47.5484 29.4499 47.6373 29.2144 47.7991C28.9789 47.9609 28.8612 48.1672 28.8612 48.4178C28.8612 48.824 29.0792 49.1286 29.5151 49.3317C29.9511 49.5347 30.5876 49.6363 31.4245 49.6363C31.9432 49.6363 32.3776 49.5918 32.7277 49.503C33.0809 49.4142 33.3832 49.2888 33.6346 49.127C33.8733 48.9715 34.0499 48.7875 34.1645 48.5749C34.2822 48.3623 34.3411 48.1354 34.3411 47.8943C34.3411 47.669 34.2934 47.4707 34.1979 47.2994C34.1024 47.1248 33.9815 46.9821 33.8351 46.871C33.7015 46.7663 33.5439 46.6822 33.3625 46.6188C33.1811 46.5521 32.9982 46.514 32.8136 46.5045C32.6863 46.5014 32.4747 46.4918 32.1787 46.476C31.8828 46.4569 31.59 46.4442 31.3004 46.4379C31.0076 46.4315 30.8056 46.4014 30.6942 46.3475C30.5828 46.2935 30.5271 46.1968 30.5271 46.0571C30.5271 46 30.5494 45.9413 30.5939 45.881C30.6417 45.8176 30.6846 45.7716 30.7228 45.743H31.5009C31.8064 45.743 32.0896 45.7081 32.3506 45.6383C32.6115 45.5685 32.8391 45.4717 33.0332 45.348C33.2241 45.2274 33.3784 45.0719 33.4962 44.8815C33.6139 44.688 33.6728 44.4818 33.6728 44.2628C33.6728 44.0947 33.641 43.9328 33.5773 43.7774C33.5169 43.6219 33.4246 43.4743 33.3005 43.3347ZM31.9353 43.3633C32.053 43.579 32.1119 43.8725 32.1119 44.2438C32.1119 44.6087 32.0498 44.8911 31.9257 45.091C31.8048 45.2909 31.6298 45.3908 31.4007 45.3908C31.1779 45.3908 31.0061 45.2798 30.8851 45.0577C30.7642 44.8355 30.7037 44.5516 30.7037 44.2057C30.7037 44.0534 30.7133 43.9059 30.7324 43.7631C30.7515 43.6171 30.7881 43.4902 30.8422 43.3823C30.8994 43.2713 30.9742 43.1872 31.0665 43.1301C31.1588 43.0698 31.267 43.0396 31.3911 43.0396C31.6361 43.0396 31.8175 43.1475 31.9353 43.3633ZM32.8231 47.9181C32.8836 48.026 32.9138 48.1339 32.9138 48.2417C32.9138 48.5939 32.8056 48.8494 32.5892 49.008C32.3728 49.1667 32.0594 49.246 31.6489 49.246C31.372 49.246 31.1652 49.219 31.0283 49.1651C30.8915 49.1143 30.7674 49.0429 30.656 48.9509C30.5605 48.8684 30.4905 48.7796 30.446 48.6844C30.4014 48.5892 30.3791 48.5019 30.3791 48.4226C30.3791 48.2386 30.4157 48.0815 30.4889 47.9514C30.5653 47.8213 30.6592 47.7087 30.7706 47.6135C31.2288 47.6135 31.5884 47.6167 31.8494 47.623C32.1135 47.6294 32.3028 47.642 32.4174 47.6611C32.6274 47.7277 32.7627 47.8134 32.8231 47.9181ZM28.6177 47.4231L26.3408 47.5611L26.2692 47.4945V46.871H26.2406C26.1324 46.9694 26.0258 47.0661 25.9207 47.1613C25.8189 47.2534 25.6964 47.3374 25.5532 47.4136C25.3909 47.4993 25.2366 47.5627 25.0902 47.604C24.947 47.6452 24.7369 47.6658 24.4601 47.6658C23.9796 47.6658 23.6104 47.5215 23.3526 47.2327C23.0981 46.944 22.9708 46.5363 22.9708 46.0095V43.8678C22.9708 43.744 22.9469 43.6441 22.8992 43.5679C22.8514 43.4886 22.7878 43.4188 22.7082 43.3585C22.6446 43.3109 22.5618 43.2776 22.46 43.2586C22.3582 43.2364 22.2659 43.2221 22.1831 43.2157V42.8683L24.4983 42.7445L24.5508 42.8159V45.981C24.5508 46.3078 24.6128 46.549 24.7369 46.7044C24.8642 46.8599 25.0377 46.9376 25.2572 46.9376C25.4832 46.9376 25.6853 46.8789 25.8635 46.7615C26.0449 46.6441 26.1769 46.5188 26.2597 46.3855V43.8202C26.2597 43.7123 26.239 43.6155 26.1976 43.5299C26.1562 43.4442 26.0958 43.3744 26.0162 43.3204C25.9589 43.2824 25.8762 43.257 25.768 43.2443C25.663 43.2316 25.5548 43.2221 25.4434 43.2157V42.8683L27.7585 42.7445L27.8301 42.8159V46.4902C27.8301 46.6013 27.8524 46.6965 27.897 46.7758C27.9415 46.852 28.0067 46.917 28.0927 46.971C28.1531 47.009 28.2311 47.036 28.3266 47.0519C28.4252 47.0646 28.5223 47.0725 28.6177 47.0757V47.4231ZM17.1854 47.5231H21.8824V45.7478H21.5435C21.5085 45.8937 21.4576 46.0603 21.3908 46.2475C21.3239 46.4315 21.2698 46.5696 21.2285 46.6616C21.1839 46.7631 21.1219 46.8504 21.0423 46.9234C20.9659 46.9963 20.8625 47.0408 20.732 47.0566C20.6334 47.0693 20.4949 47.0804 20.3167 47.0899C20.1385 47.0963 19.9715 47.0995 19.8155 47.0995C19.6819 47.0995 19.5418 47.0979 19.3955 47.0947C19.2491 47.0915 19.1377 47.0899 19.0613 47.0899L21.8108 43.0967V42.8017H17.3715V44.358H17.7104C17.7677 44.1327 17.8457 43.917 17.9443 43.7107C18.0462 43.5013 18.1273 43.3855 18.1878 43.3633C18.3628 43.2966 18.6015 43.2586 18.9038 43.2491C19.2061 43.2395 19.5466 43.2348 19.9253 43.2348L17.1854 47.1947V47.5231ZM16.8083 47.5231H13.9633V47.1756C14.0333 47.1661 14.1065 47.1582 14.1829 47.1518C14.2592 47.1455 14.3229 47.1296 14.3738 47.1042C14.4438 47.0725 14.4884 47.0201 14.5075 46.9472C14.5266 46.871 14.5361 46.7742 14.5361 46.6568V44.4342C14.5361 44.1073 14.4772 43.863 14.3595 43.7012C14.2449 43.5362 14.0794 43.4537 13.863 43.4537C13.7262 43.4537 13.6037 43.4759 13.4955 43.5203C13.3905 43.5616 13.2934 43.6139 13.2043 43.6774C13.112 43.744 13.0404 43.8107 12.9895 43.8773C12.9386 43.9439 12.8956 44.001 12.8606 44.0486V46.6045C12.8606 46.7187 12.8734 46.8123 12.8988 46.8853C12.9275 46.9551 12.9784 47.0106 13.0516 47.0519C13.1025 47.0804 13.1598 47.1058 13.2234 47.128C13.2902 47.1502 13.3602 47.1661 13.4334 47.1756V47.5231H10.7078V47.1756C10.7683 47.1693 10.8415 47.1613 10.9274 47.1518C11.0133 47.1423 11.077 47.1264 11.1183 47.1042C11.1851 47.0693 11.2281 47.0186 11.2472 46.9519C11.2695 46.8853 11.2806 46.7869 11.2806 46.6568V44.4342C11.2806 44.1073 11.2217 43.863 11.104 43.7012C10.9894 43.5362 10.824 43.4537 10.6076 43.4537C10.4707 43.4537 10.3482 43.4759 10.24 43.5203C10.135 43.5616 10.0379 43.6139 9.94883 43.6774C9.85654 43.744 9.78494 43.8107 9.73403 43.8773C9.68311 43.9439 9.64015 44.001 9.60514 44.0486V46.6045C9.60514 46.7155 9.61946 46.8075 9.6481 46.8805C9.67674 46.9535 9.72766 47.0106 9.80085 47.0519C9.85177 47.0804 9.90905 47.1058 9.9727 47.128C10.0395 47.1502 10.1095 47.1661 10.1827 47.1756V47.5231H7.32344V47.1756C7.40618 47.1693 7.48733 47.1613 7.56688 47.1518C7.64644 47.1423 7.71486 47.1264 7.77214 47.1042C7.87398 47.0661 7.94399 47.0122 7.98217 46.9424C8.02036 46.8694 8.03945 46.7742 8.03945 46.6568V43.8868C8.03945 43.7853 8.0124 43.6869 7.95831 43.5917C7.90421 43.4934 7.83897 43.4172 7.7626 43.3633C7.70531 43.3252 7.63212 43.2935 7.54302 43.2681C7.4571 43.2427 7.36163 43.2253 7.25661 43.2157V42.8683L9.53354 42.7445L9.60514 42.8159V43.487H9.62424L9.93928 43.2062C10.0634 43.0952 10.1795 43.0063 10.2877 42.9397C10.4055 42.8635 10.5566 42.8001 10.7412 42.7493C10.9258 42.6985 11.1279 42.6732 11.3474 42.6732C11.7102 42.6732 12.0125 42.7525 12.2544 42.9111C12.4994 43.0666 12.6729 43.2744 12.7747 43.5346H12.8177C12.91 43.449 13.0229 43.349 13.1566 43.2348C13.2902 43.1174 13.4128 43.0238 13.5241 42.954C13.6482 42.8746 13.8058 42.808 13.9967 42.7541C14.1908 42.7001 14.3977 42.6732 14.6173 42.6732C15.0978 42.6732 15.4669 42.8144 15.7247 43.0967C15.9856 43.3791 16.1161 43.7805 16.1161 44.3009V46.614C16.1161 46.7314 16.1336 46.8266 16.1686 46.8996C16.2036 46.9694 16.2673 47.0233 16.3596 47.0614C16.4105 47.0836 16.4725 47.1058 16.5457 47.128C16.6221 47.1502 16.7096 47.1661 16.8083 47.1756V47.5231ZM4.65986 47.5611L6.93679 47.4231V47.0757C6.84132 47.0725 6.74426 47.0646 6.64561 47.0519C6.55014 47.036 6.47218 47.009 6.41171 46.971C6.32579 46.917 6.26055 46.852 6.216 46.7758C6.17145 46.6965 6.14917 46.6013 6.14917 46.4902V42.8159L6.07757 42.7445L3.76245 42.8683V43.2157C3.87383 43.2221 3.98203 43.2316 4.08705 43.2443C4.19525 43.257 4.27799 43.2824 4.33527 43.3204C4.41482 43.3744 4.47529 43.4442 4.51666 43.5299C4.55803 43.6155 4.57871 43.7123 4.57871 43.8202V46.3855C4.49597 46.5188 4.36391 46.6441 4.18252 46.7615C4.00431 46.8789 3.80223 46.9376 3.57629 46.9376C3.35671 46.9376 3.18328 46.8599 3.05599 46.7044C2.93188 46.549 2.86982 46.3078 2.86982 45.981V42.8159L2.81731 42.7445L0.502197 42.8683V43.2157C0.584937 43.2221 0.677223 43.2364 0.779057 43.2586C0.88089 43.2776 0.96363 43.3109 1.02728 43.3585C1.10683 43.4188 1.17048 43.4886 1.21821 43.5679C1.26595 43.6441 1.28981 43.744 1.28981 43.8678V46.0095C1.28981 46.5363 1.41711 46.944 1.67169 47.2327C1.92945 47.5215 2.2986 47.6658 2.77913 47.6658C3.05599 47.6658 3.26602 47.6452 3.40922 47.604C3.55561 47.5627 3.70995 47.4993 3.87224 47.4136C4.01545 47.3374 4.13796 47.2534 4.2398 47.1613C4.34481 47.0661 4.45142 46.9694 4.55962 46.871H4.58826V47.4945L4.65986 47.5611Z" fill="black"/>
</svg>
